<svg width="211.77mm" height="205.79mm" version="1.1" viewBox="0 0 211.77 205.79" xmlns="http://www.w3.org/2000/svg">
 <g transform="translate(1.1506 2.5601)">
  <path d="m49.848 200.07c0.09365-0.15152 52.155-56.894 56.275-61.335 0.82321-0.88734 1.4656-1.6444 1.4276-1.6824-0.038-0.038-0.99729 0.37514-2.1317 0.91813-9.3131 4.4575-20.203 6.8832-30.902 6.8832-22.423 0-43.553-10.288-57.385-27.94-0.66231-0.84524-1.2266-1.5144-1.254-1.487-0.02737 0.0274 2.458 8.9629 5.523 19.857 3.065 10.894 5.5947 19.932 5.6215 20.086 0.0429 0.24578-0.20733 0.35119-2.0972 0.88354-1.1803 0.33245-2.1562 0.59329-2.1687 0.57967-0.11903-0.12953-18.902-67.239-19.231-68.71-3.5114-15.705-1.4612-32.554 5.7314-47.102 3.6363-7.3552 7.962-13.36 13.87-19.252 12.822-12.789 29.412-20.16 47.669-21.179 1.562-0.087192 27.783-0.1406 69.666-0.1419l67.161-0.002077v4.5796l-107.52 0.071934 2.1299 0.85651c11.847 4.7639 22.935 13.383 30.794 23.937 2.766 3.7146 4.6136 6.7637 6.8309 11.274 2.3654 4.811 3.8072 8.6602 5.0742 13.546 0.61308 2.3644 34.213 145.16 34.213 145.4 0 0.0932-0.82326 0.13073-2.3127 0.10541l-2.3127-0.0393-13.892-59.067c-7.6404-32.487-13.915-59.044-13.944-59.015-0.0286 0.02856-0.23485 1.1362-0.4584 2.4614-1.9324 11.456-6.4953 22.044-13.497 31.32-0.83181 1.102-2.0347 2.6156-2.6731 3.3634-0.6384 0.74782-17.597 19.276-37.686 41.173l-36.526 39.813-3.0498 0.011c-2.3771 9e-3 -3.0259-0.0278-2.9412-0.16481zm30.179-59.94c16.636-1.3962 31.811-8.5128 43.374-20.341 5.3607-5.4836 9.2407-11.01 12.597-17.941 3.3582-6.9358 5.3316-13.731 6.2972-21.683 0.31419-2.5877 0.4355-9.5637 0.21663-12.457-1.47-19.432-11.166-37.114-26.847-48.958-9.8296-7.4249-21.54-12.03-33.992-13.367-2.9905-0.32117-8.4569-0.42889-11.45-0.22562-14.945 1.015-28.376 6.4289-39.932 16.097-1.8651 1.5604-5.5748 5.2441-7.3669 7.3152-9.1867 10.617-14.646 23.212-16.192 37.355-0.34737 3.1775-0.35234 10.28-0.0093583 13.382 1.2757 11.539 4.7771 21.377 10.901 30.629 2.7248 4.1165 5.2303 7.137 8.9692 10.812 3.5981 3.5371 6.2891 5.7259 10.211 8.305 9.768 6.4244 21.164 10.285 32.847 11.128 1.5915 0.11485 8.8255 0.0796 10.376-0.0506zm-31.62-8.0441c-0.93916-0.40204-2.6781-1.2234-3.8643-1.8252l-2.1568-1.0942-1.5848-3.1394c-1.8826-3.7295-2.9149-6.19-4.1393-9.8663-2.3272-6.9873-3.4213-13.274-3.6056-20.717l-0.08769-3.5423h1.0013c0.5507 0 1.5908 0.04187 2.3114 0.09299l1.3101 0.093 5.41e-4 2.4475c0.0016 5.4784 0.82919 11.307 2.439 17.178 1.7907 6.5309 4.9037 13.295 8.8145 19.154 0.72256 1.0824 1.3037 1.9639 1.2914 1.959-0.01228-5e-3 -0.79069-0.33785-1.7298-0.73987zm-20.978-46.008c-4.7833-0.27453-8.7686-1.8461-11.496-4.5332-2.8175-2.7762-4.3114-6.9913-4.0486-11.423 0.22191-3.7424 1.5927-6.7757 4.2038-9.3021 2.9387-2.8434 6.7398-4.398 11.855-4.8486 2.2398-0.19729 4.6655-0.02299 7.2473 0.52081 1.7419 0.36688 4.544 1.1511 4.7183 1.3205 0.10704 0.10407-0.56956 3.023-0.74673 3.2215-0.05836 0.06538-0.57758-0.24541-1.1538-0.69065-1.242-0.95963-3.1938-1.9356-4.783-2.3915-1.0152-0.29129-1.4452-0.32768-3.7928-0.3209-2.4709 0.0071-2.7334 0.03392-3.9288 0.40128-3.5159 1.0804-6.0177 3.2183-7.5217 6.4278-1.8264 3.8975-1.8584 9.2183-0.07851 13.071 2.0573 4.4528 6.1478 6.9283 11.448 6.9283 3.288 0 6.9279-1.0259 9.2409-2.6045 0.9268-0.63254 0.88861-0.63658 0.79825 0.08455-0.04544 0.36264-0.11895 0.95032-0.16334 1.306-0.07714 0.61804-0.11668 0.66474-0.89452 1.0566-1.043 0.52544-2.814 1.0829-4.3384 1.3656-1.1272 0.20905-4.8651 0.53674-5.4922 0.48149-0.15744-0.01385-0.64048-0.04555-1.0734-0.0704zm95.255-0.89618c-0.30848-0.38944-5.5349-5.6385-11.614-11.665-7.5331-7.4671-11.148-10.957-11.351-10.957h-0.29805l-2.87e-4 11.557-2.87e-4 11.557h-2.5759l1.24e-4 -14.634 1.57e-4 -14.634h1.6512l11.447 11.088c6.296 6.0985 11.528 11.09 11.626 11.092 0.14162 0.0032 0.1789-2.3085 0.1789-11.091v-11.095l0.39359 0.11007c0.51624 0.14437 1.5976 0.14063 2.0037-0.0069l0.32203-0.11699v29.503h-0.6111c-0.56146 0-0.65667-0.05752-1.172-0.70806zm-54.608-14.141 4.9e-5 -14.634 6.4764 4.33e-4c6.9831 5.41e-4 8.9986 0.118 11.079 0.64572 3.8439 0.97509 5.5982 3.262 5.1783 6.7504-0.37961 3.1532-3.2947 5.7078-7.7251 6.7699-0.65833 0.15782-1.3381 0.2874-1.5105 0.28795-0.17247 5.41e-4 -0.35086 0.06133-0.39643 0.13506-0.04555 0.07373 2.5752 3.1402 5.8239 6.8143 3.2487 3.6741 6.1102 6.9468 6.3589 7.2726l0.45219 0.59235-5.2523-0.0251-1.3966-1.7765c-1.6377-2.0832-6.6734-7.8611-9.1261-10.471l-1.7148-1.8248h-4.096l-8.6e-5 7.0489-8.7e-5 7.0489h-4.1505zm12.437-1.4593c2.6356-0.55259 4.5713-1.8695 5.4246-3.6905 0.35017-0.74727 0.38685-0.98169 0.38667-2.4715-1.4e-4 -1.4262-0.04376-1.7335-0.32676-2.3023-0.70476-1.4165-2.0119-2.3502-4.0034-2.8595-0.95132-0.2433-1.5991-0.27688-5.3417-0.27688-2.3425 0-4.361 0.03911-4.4855 0.08688-0.20132 0.07726-0.22639 0.73399-0.22639 5.9314v5.8445l0.60828 0.06522c0.33455 0.03586 1.9608 0.04035 3.6139 0.01 2.2685-0.04171 3.3354-0.12442 4.3503-0.33722zm-36.482 1.4235v-14.599h19.21l-0.11622 0.39359c-0.15363 0.52029-0.15518 1.3122-0.0032 1.7401l0.12224 0.34464-1.4838-0.09942c-5.2209-0.34981-8.6849-0.51257-10.966-0.51525l-2.612-0.0032v11.05l6.691-0.06199c3.6801-0.03408 6.8134-0.11582 6.9629-0.18161 0.24472-0.10768 0.25999-0.07796 0.15274 0.2975-0.15101 0.52867-0.15124 1.0205-5.41e-4 1.547 0.11498 0.4022 0.10638 0.41115-0.29587 0.30824-0.22786-0.0583-3.3609-0.13842-6.9622-0.17806l-6.5479-0.07206v12.623h3.9636c2.18 0 4.8367-0.06138 5.9039-0.1364 1.0671-0.07502 2.7317-0.16567 3.699-0.20144 1.7528-0.06483 1.7583-0.06402 1.6467 0.24374-0.14578 0.40191-0.1435 1.3665 0.0043 1.7758l0.1162 0.32203h-19.485zm4.1506-21.556c0-0.0479 0.43039-0.61145 0.95643-1.2523 8.846-10.777 20.162-18.637 33.107-22.994 10.084-3.394 21.06-4.5722 31.432-3.3742l1.6005 0.18486 0.98071 0.82353c1.4476 1.2156 5.2029 4.6769 5.2029 4.7956 0 0.05638-0.53135-0.01429-1.1808-0.15702-7.4716-1.6422-15.914-1.988-23.651-0.96882-7.1214 0.93805-14.322 3.1008-20.929 6.2859-8.5008 4.0981-16.363 10.034-21.274 16.063l-0.55382 0.67984h-2.8452c-1.5649 0-2.8452-0.03919-2.8452-0.08709zm52.67 116.15c-3.1517-0.2238-8.3447-0.9377-8.2711-1.137 0.02277-0.0617 0.82639-0.97425 1.7858-2.0279l1.7444-1.9158 1.4044 0.17571c3.9727 0.49708 9.6323 0.63871 13.442 0.33634 17.266-1.3704 33.017-8.9906 44.911-21.727 0.61232-0.65571 1.1274-1.171 1.1447-1.145 0.0173 0.026 0.30486 1.2065 0.63908 2.6234l0.60769 2.5762-1.906 1.8606c-13.533 13.21-32.054 20.656-51.04 20.518-1.5484-0.0113-3.556-0.073-4.4612-0.13732zm-21.397-4.6946c-8.8751-3.4892-16.218-8.0647-23.295-14.515-0.68987-0.62877-1.2289-1.1686-1.1978-1.1997 0.0311-0.0311 0.69213 0.1029 1.469 0.29772 1.6382 0.41082 4.5059 0.99558 6.0942 1.2427 1.0202 0.1587 1.1987 0.24178 2.3615 1.0991 5.2982 3.9059 11.737 7.3049 17.839 9.4173l1.9459 0.6736-1.6737 1.8072c-0.92056 0.99396-1.7079 1.8173-1.7495 1.8297-0.04171 0.0124-0.84866-0.28132-1.7933-0.6527zm86.174-30.772-0.70222-2.9905 1.7292-3.4851c2.9498-5.9452 4.5997-10.697 5.8323-16.796 2.5735-12.734 1.4324-25.746-3.3195-37.856-4.4452-11.329-11.922-21.236-21.873-28.984-1.3716-1.068-5.6451-3.9592-6.8953-4.6649-0.42923-0.24232-0.7513-0.60063-1.1421-1.2706-0.7137-1.2235-3.021-4.661-3.8635-5.7559-0.81274-1.0562-0.81335-1.0563 2.1684 0.39833 11.794 5.7538 21.87 14.625 29.037 25.566 4.3888 6.7 7.5954 13.975 9.541 21.647 0.37996 1.4984 0.72256 2.6277 0.7613 2.5096 0.0387-0.11808 1.9165-13.353 4.1728-29.412 2.2563-16.059 4.1127-29.206 4.1253-29.217 0.0126-0.01105 1.0212 0.11791 2.2414 0.28657l2.2184 0.30666-0.0503 0.50062c-0.27041 2.6901-11.599 82.198-11.722 82.274-0.089 0.055-0.32675 1.075-0.52844 2.2668-1.6507 9.754-5.1513 18.72-10.676 27.346-0.11345 0.17711-0.23907 0.32168-0.27918 0.32126-0.0401-4.3e-4 -0.38891-1.3465-0.77513-2.9912z" fill="#fff" stroke-width=".14312"/>
 </g>
</svg>
