<svg width="181.94mm" height="84.052mm" version="1.1" viewBox="0 0 181.94 84.052" xmlns="http://www.w3.org/2000/svg">
 <g transform="translate(-.22418 .97263)">
  <path d="m5.0715 79.745c-0.34978-0.17976-0.88556-0.66279-1.1906-1.0734-0.5363-0.72185-0.55725-1.0727-0.63264-10.593-0.0851-10.751-0.0109-11.435 1.3535-12.448 0.70558-0.52413 1.122-0.55874 7.6186-0.63318l6.8722-0.07874-0.156 3.8616-4.8948 0.06951c-4.2225 0.05996-4.9402 0.13051-5.2255 0.51359-0.24696 0.3316-0.33073 2.4082-0.33073 8.1987 0 7.4019 0.0241 7.7787 0.52916 8.2838 0.48997 0.48997 0.88195 0.52917 5.2917 0.52917h4.7625v3.7042l-6.6807-0.0039c-4.7756-0.0028-6.8621-0.0971-7.3167-0.33073zm15.849-12.233v-12.568h5.2917v10.054h7.6729v-10.054h5.2917v25.135h-5.2917v-11.113h-7.6729v11.113h-5.2917zm22.956 12.154c-1.5006-0.8142-1.5247-1.0063-1.5247-12.154 0-8.753 0.0592-10.327 0.41445-11.014 0.7313-1.4142 1.512-1.5535 8.7052-1.5535h6.4908v3.9688h-4.8624c-4.1967 0-4.9121 0.0598-5.2255 0.43681-0.2371 0.28522-0.39469 1.3412-0.45407 3.0427l-0.0909 2.6059h10.633v3.9688h-10.626l0.0877 3.3292c0.0772 2.9312 0.14912 3.374 0.60132 3.7042 0.40326 0.29443 1.668 0.37499 5.887 0.37499h5.3734v3.7042l-7.3422-0.01058c-5.9778-0.0086-7.4768-0.08362-8.0665-0.40358zm22.225 0.13022c-0.25288-0.14733-0.57288-0.47919-0.7111-0.73748-0.28141-0.5258-6.6343-23.322-6.6343-23.805 0-0.21681 0.88984-0.30854 2.9932-0.30854h2.9932l2.7224 10.385c1.4973 5.7117 2.888 10.558 3.0903 10.77 0.23123 0.24232 0.4558 0.29146 0.60455 0.13229 0.13016-0.13928 1.4609-4.986 2.9571-10.77l2.7205-10.517h2.3647c1.8013 0 2.334 0.07995 2.236 0.33558-0.0708 0.18457-1.5389 5.5722-3.2625 11.972-2.4155 8.9697-3.269 11.773-3.724 12.232-0.55621 0.56097-0.80085 0.59485-4.2403 0.58727-2.0075-0.0044-3.8569-0.12859-4.1098-0.27592zm16.202-12.284v-12.568l7.8714 5.29e-4c6.9639 2.65e-4 7.9781 0.05375 8.7974 0.46302 1.6095 0.80404 1.8512 1.6857 1.8517 6.755 5.3e-4 6.0764-0.42753 6.9494-3.5817 7.3034l-1.449 0.16251 3.3093 5.0852c1.8201 2.7969 3.3093 5.152 3.3093 5.2337 0 0.08164-1.4441 0.115-3.2091 0.07415l-3.2091-0.07429-3.4157-5.8208c-1.8786-3.2015-3.4838-6.0896-3.567-6.4181-0.0871-0.34368 0.0322-0.87724 0.28086-1.2568 0.4075-0.62191 0.56761-0.65953 2.8073-0.65953 3.2338 0 3.4335-0.20109 3.4335-3.457 0-3.5611 0.17758-3.4222-4.3749-3.4222h-3.8272v21.167h-5.0271zm22.954 12.103c-1.4865-0.92169-1.5229-1.2123-1.5219-12.143 1e-3 -9.5776 0.0243-10.052 0.53496-10.89 0.92941-1.5244 1.5697-1.6377 9.2536-1.6377 7.7062 0 8.348 0.1142 9.1767 1.6328 0.44052 0.8073 0.4806 1.7191 0.4806 10.935 0 9.1129-0.0438 10.134-0.46751 10.91-0.87215 1.5958-1.2301 1.6589-9.3751 1.6511-6.4565-0.0062-7.4441-0.06206-8.0814-0.45725zm12.119-3.6151c0.48495-0.35432 0.5174-0.80059 0.58202-8.0036 0.0521-5.8112-0.0127-7.786-0.27201-8.2899-0.33623-0.65326-0.38748-0.66237-4.1334-0.73505-2.5714-0.04989-3.9111 0.02445-4.1598 0.23084-0.29794 0.24726-0.36681 1.8108-0.36681 8.3268 0 7.9902 2e-3 8.024 0.58804 8.4343 0.81057 0.56775 6.995 0.59694 7.7619 0.03663zm9.1126-8.4883v-12.568h5.0271v21.431h10.054v3.7042h-15.081zm17.546 12.052c-1.5557-0.9486-1.5382-0.81302-1.5382-11.919 0-9.3436 0.0398-10.259 0.48059-11.067 0.82148-1.5054 1.5056-1.6328 8.7713-1.6328h6.4908v3.9688l-4.8286 4e-3c-2.6558 0.0021-5.0072 0.11677-5.2255 0.25453-0.30147 0.19026-0.41857 0.92077-0.4871 3.0387l-0.0902 2.7882h10.632v3.9688h-10.583v3.175c0 4.4727-0.359 4.2333 6.35 4.2333h5.2917v3.7042l-7.2099-0.0011c-6.6724-7.94e-4 -7.2727-0.03931-8.0529-0.51501zm22.671-10.067v-10.583h-7.1438v-3.9688h19.602l-0.0777 1.9182-0.0777 1.9182-7.0115 0.14765v21.151h-5.2917zm-93.588-32.017c-0.73646-0.30012-0.8529-0.81089-0.93447-4.0987l-0.0656-2.6458-15.138-0.13229c-13.644-0.11924-15.181-0.17565-15.577-0.57169-0.24157-0.24167-0.43922-0.72202-0.43922-1.0674 0-0.81649 9.1599-18.723 9.8878-19.329 0.50749-0.42284 1.4157-0.46302 10.466-0.46302 6.3252 0 10.095-0.09908 10.422-0.27389 0.45752-0.24486 0.51178-0.57708 0.51178-3.134 0-2.4348 0.0719-2.9252 0.48385-3.298 0.43962-0.39786 2.0321-0.43788 17.421-0.43788 16.073 0 16.96 0.02471 17.376 0.48386 0.34877 0.38539 0.43788 1.0477 0.43788 3.2544 0 1.8021 0.11099 2.8815 0.3175 3.088 0.23934 0.23934 3.942 0.3175 15.04 0.3175 13.927 0 14.746 0.02615 15.161 0.48385 0.24084 0.26612 0.43788 0.69893 0.43788 0.9618 0 0.8326-9.5329 19.176-10.149 19.529-0.41239 0.23631-3.2635 0.34668-10.482 0.40579-7.3159 0.0599-9.9682 0.16395-10.116 0.39688-0.11039 0.17363-0.20253 1.5133-0.20476 2.9771-3e-3 1.8752-0.11496 2.8131-0.37951 3.175-0.3641 0.49806-0.88211 0.51518-17.132 0.56599-9.5224 0.02978-17.01-0.05095-17.344-0.18698zm28.783-5.5633c0.45785-0.24503 0.51177-0.5773 0.51177-3.1534 0-1.5837 0.0723-3.0678 0.1606-3.298 0.14294-0.37248 1.3887-0.41852 11.327-0.41852 8.5374 0 11.263-0.07786 11.576-0.33073 0.69218-0.55768 4.7593-8.6327 4.6688-9.2695l-0.0834-0.58621-13.547-0.13229c-8.6442-0.08441-13.644-0.2296-13.816-0.40117-0.14779-0.14788-0.3025-1.6957-0.34379-3.4396l-0.075-3.1707h-24.342l-0.0751 3.1707c-0.0413 1.7439-0.19597 3.2917-0.34374 3.4396-0.1696 0.16974-4.5318 0.31766-11.831 0.40117l-11.563 0.13229-2.3032 4.4979c-1.2668 2.4739-2.3067 4.5574-2.311 4.6302-4e-3 0.07276 0.105 0.31088 0.2429 0.52917 0.21589 0.3417 2.174 0.41527 14.085 0.52917l13.834 0.13229 0.0715 3.175c0.0586 2.602 0.15132 3.2347 0.51359 3.5057 0.57297 0.42868 22.847 0.48223 23.642 0.05684z" fill="#fff" stroke-width=".26458"/>
 </g>
</svg>
