<svg width="289" height="104.5" space="preserve" version="1.1" viewBox="0 0 289 104.5" xmlns="http://www.w3.org/2000/svg">
 <script/>
 <style type="text/css">.st0{fill:#D3D2D2;}
	.st1{fill:url(#path3558_1_);}
	.st2{fill:url(#path3580_1_);}
	.st3{fill:url(#path3602_1_);}
	.st4{fill:url(#path3624_1_);}
	.st5{fill:url(#path3646_1_);}
	.st6{fill:url(#path3668_1_);}
	.st7{fill:url(#path3690_1_);}
	.st8{fill:url(#path3742_1_);}
	.st9{fill:url(#path3764_1_);}
	.st10{fill:url(#path3786_1_);}
	.st11{fill:url(#path3808_1_);}
	.st12{fill:url(#path3830_1_);}
	.st13{fill:url(#path3852_1_);}
	.st14{fill:url(#path3874_1_);}
	.st15{fill:url(#path3896_1_);}
	.st16{fill:url(#path3918_1_);}
	.st17{fill:url(#path3940_1_);}
	.st18{fill:url(#path3962_1_);}
	.st19{fill:url(#path3984_1_);}
	.st20{fill:url(#path4006_1_);}
	.st21{fill:url(#path4028_1_);}
	.st22{fill:url(#path4050_1_);}
	.st23{fill:url(#path4072_1_);}
	.st24{fill:url(#path4094_1_);}
	.st25{fill:#4F4C4D;}
	.st26{fill:url(#path4130_1_);}
	.st27{fill:url(#path4154_1_);}
	.st28{fill:url(#path4180_1_);}
	.st29{fill:url(#path4206_1_);}
	.st30{fill:url(#path4232_1_);}</style>
 <path d="m145.43 3.4941c-78.2 0-141.6 22.001-141.6 49.201 0 27.2 63.4 49.299 141.5 49.299 78.2 0 141.5-22.099 141.5-49.299 0.10001-27.2-63.2-49.201-141.4-49.201zm0 4.2012c75.4 0 136.6 20.1 136.6 45 0 24.9-61.1 45-136.6 45-75.4 0-136.6-20.1-136.6-45 0-24.9 61.1-45 136.6-45zm-36.699 8c-2.1 0-4.2008 0.098829-6.3008 0.29883-13.5 1.1-26.3 8.7008-26.4 20.301 0 5.9 4.2016 10.6 10.602 10.4 7.6-0.3 13.8-6.3 17.1-14 1.2-2.9-1.0996-4.1004-2.0996-2.4004-1.9 3-4.7016 5.3008-7.6016 6.8008-3.6 1.7-7.4 1.2984-8.5-1.6016-1.6-4.1 1.8-10.2 9.5-13.1 11.1-4.1 22.8-1.3988 34 0.70117 0.2 0 0.80118 0.29961 0.20118 0.59961-2 1.1-3.9996 1.9996-7.0996 4.5996-2.2 1.9-5.1008 4.3996-7.3008 7.0996s-3.8004 5.1008-5.9004 7.8008c-0.3 0.4-0.59961 0.40039-0.59961 0.40039-5.1 0.9-9.9996 1.3996-14.6 4.5996-0.9 0.6-1.3008 1.7992-0.80078 2.6992 0.5 0.8 1.7 0.90078 2.5 0.30078 2.8-2.1 5.6996-3.1012 9.0996-3.2012 0.1 0 0.20078 0.001562 0.30078 0.10156v0.19922c-5 6.9-6.2 8.5008-10 12.801-1.9 2.2-3.8004 4.1-5.9004 6-8.5 7.9-17.7 7.7988-21 2.7988-2-3-1.7004-6.0992-0.40039-8.6992 1.6-3.2 4.8-5.5004 7.5-6.9004 1-0.5 1.3008-1.8004 0.30078-2.9004-0.6-0.8-2.2008-0.89922-3.3008-0.69922-3.5 0.6-7.5996 3.3-10.1 6.5-2.7 3.6-4.0992 7.8992-3.6992 12.699 0.8 8.8 7.9992 13.801 16.199 13.801 6.5-0.099999 12.7-2 20-9.5 6.9-7 13.2-17.4 19-27.1 0.2-0.3 0.30118-0.50156 1.2012-0.60156 3.7-0.5 9.0996-0.99922 12.6-1.1992 0.8 0 0.89921 3.9e-4 1.1992 0.40039 0.9 1.1 2.3004 2.0992 3.4004 2.6992 0.5 0.3 0.79922 0.40039 1.1992 0.40039 0.5 0 0.90118-0.29961 1.2012-0.59961 0.4-0.4 0.49882-0.90078 0.29882-1.3008s-2.5992-1.6992-2.6992-2.1992c-0.09999-0.3 0.30079-0.40039 0.30079-0.40039 1.8-0.6 3.5988-1.7004 4.7988-3.9004 1.1-2.1 1.3008-5-0.69921-6.5-1.8-1.4-4.4996-1.1992-6.5996 0.80078-2.1 1.9-2.8 4.6-2.5 7 0 0.4 0 0.59961-0.5 0.59961-3.2 0.3-6.3008 0.3-9.8008 0.5-0.2 0-0.29921-0.10078-0.19921-0.30078 4-6.9 9.9-11.799 16.5-16.699 0.4-0.3 0.29882-0.9 0.29882-1.5 11.9 2.6 23.3 7.4008 35.6 7.3008 5.1 0 10.002-0.80039 14.602-3.4004 4.1-2.2 5.7984-4.3004 5.8984-6.4004 0.1-1.5-0.89843-2.3996-2.3984-2.0996-12.4 2.9-24.301 2.7988-36.701 1.2988-14.2-1.8-27.699-5.2988-41.699-5.2988zm24.568 20.018c0.28593 0.006445 0.54296 0.09375 0.73046 0.28125 0.7 0.6 0.30118 2.0004-0.29882 2.9004-0.7 1.1-1.9996 2.0012-3.0996 2.2012h-0.10157c-0.1 0.1-0.29843 0-0.39843-0.5-0.2-1.3 0.19921-3.1008 1.6992-4.3008 0.4375-0.375 0.99219-0.59277 1.4688-0.58203zm92.23 0.28125c-0.6 0-0.79961 0.10156-1.0996 0.60156-0.9 1.7-11.5 17.5-13.4 20.6-0.3 0.5-0.69882 0.40039-0.79882-0.099609-0.2-1.8-1.8008-3.9004-4.3008-4.9004-1.9-0.8-3.7992-0.90117-5.6992-0.70117-3.5 0.5-6.6008 2.3004-9.3008 4.4004-4.1 3.1-7.6992 7.2012-12.199 10.201-2.5 1.6-5.9012 3.0984-8.2012 0.89844-2.1-1.9-1.7992-6.2 1.3008-9.5 0.30001-0.3 0.69922-0.099219 0.69922 0.30078-0.3 1.5 0.10118 3 1.2012 4 1.4 1.2 3.3996 1.3996 5.0996 0.59961 2-1 3.2-2.8996 3.5-5.0996 0.5-3.4-2.1008-6.2996-5.3008-6.5996-2.6-0.2-5.1996 0.69883-7.5996 2.7988-1.2 1-1.9 1.8008-3 3.3008-0.3 0.4-0.69961 0.40039-0.59961-0.09961 0.1-4.3-1.6992-6.7008-5.1992-6.8008-2.8-0.1-5.7 1.4008-8 3.3008-2.5 2-4.7016 4.6992-7.1016 7.1992-0.3 0.3-0.59961 0.30117-0.59961-0.29883-0.1-2.9-0.7996-5.6016-2.0996-7.6016-0.5-0.7-1.5008-0.99961-2.3008-0.59961-0.4 0.2-1.6992 0.79961-2.6992 1.5996-0.5 0.4-0.69999 1.0012-0.5 1.7012 1.3 4.3 1.0008 9.0992-0.69921 13.199-1.6 3.8-4.7008 7.1008-8.3008 8.3008-2.4 0.8-4.9004 0.39883-6.4004-1.7012-2.1-2.9-1.2996-7.9988 1.9004-12.299 2.8-3.7 6.8008-6.0996 10.801-7.5996 0.5-0.2 0.59843-0.50039 0.39843-0.90039-0.2-0.7-0.59921-1.6-0.69922-2-0.4-1-1.3992-1.1-2.6992-1-2.9 0.3-5.5012 1.2992-8.2012 2.6992-6.8 3.6-10.199 10.7-11.699 14.5-0.7 1.8-1.2996 2.9004-2.0996 3.9004-1.1 1.4-2.4004 2.5992-4.9004 4.6992-0.2 0.2-0.40118 0.6-0.20118 1 0.3 0.5 1.5004 2.3 1.9004 2.5s0.89961-0.099219 1.0996-0.19922c1.7-1.2 3.8008-3.0008 4.8008-4.3008 0.3-0.4 0.7004-0.19961 0.9004 0.40039 0.9 3.4 3.3988 6.1008 6.7988 7.3008 6.2 2.1 12.702-0.90117 17.602-6.2012 3.1-3.4 4.1984-5.5 5.3984-7 2-2.5 6.0012-8.0992 10.701-11.699 1.7-1.3 3.7988-2.2992 4.7988-1.6992 0.8 0.5 1.1008 1.7992-0.19922 4.1992-4.8 8.8-11.899 19.199-13.199 21.699-0.2 0.4-0.00157 0.80078 0.39843 0.80078h7.3008c0.40001 0 0.59922-0.2 0.69922-0.5 3.7-5.8 7.2004-11.3 10.9-17 0.2-0.3 0.40039-0.10039 0.40039 0.099609 0.1 1.3 0.39922 3.1008 1.1992 4.3008 1.4 2.2 3.4016 3.0992 5.6016 3.1992 1.8 0 2.6996-0.2 4.5996-1 1.6-0.6 2.7988-1.3 3.7988-2 0.6-0.4 0.70157 0.30039 0.60157 0.40039-0.9 4.6 0.19882 10.101 4.7988 12.301 5.5 2.7 11.5-1.1 15-4.5 0.3-0.3 0.70118-0.30156 0.70118 0.39844 0.1 1.3 0.69921 2.9 1.6992 4 2.9 2.9 8.7996 1.8012 14.6-2.7988 3.8-2.9 7.7008-7.0004 11.301-11.4 0.1-0.2 0.2-0.39922 0-0.69922-0.5-0.6-1.3004-1.2012-1.9004-1.7012-0.19999-0.2-0.60078-0.1-0.80078 0-3.7 3.5-6.8992 7.4012-11.699 10.701-1.6 1.1-4.2008 2-5.3008 0.5-0.4-0.6-0.4-1.4 0-2.5 1.4-3.5 23.4-36.9 24.5-38.9 0.2-0.3 0.00157-0.59961-0.39843-0.59961-2.3-0.1-5.3016-0.10156-7.6016-0.10156zm-23.197 20.986c0.57407-0.011865 1.1102 0.089453 1.5976 0.31445 2.7 1.3 1.7996 4.4004 0.59961 6.9004-0.1 0.2-0.1 0.4 0 0.5 0 0.3 0.40118 0.49961 0.70118 0.59961 0.1 0 0.1996 0.10039 0.0996 0.40039-0.9 2-1.8 3.2004-3 4.9004-1.1 1.6-2.3008 2.8996-3.8008 4.0996-1.7 1.4-3.9 2.9004-6 2.9004-0.6 0-1.2988-0.2-1.7988-0.5-1.1-0.6-1.5996-2.2004-1.5996-3.4004 0.1-3.6 1.6996-7.3004 4.5996-10.9 2.925-3.575 6.1139-5.763 8.6016-5.8145z" fill="#fff"/>
</svg>
