<svg width="74.103" height="29.709" version="1.1" xmlns="http://www.w3.org/2000/svg">
 <g transform="translate(72.544 -6.4124)" fill-rule="evenodd">
  <path d="m-18.084 32.832c-0.01675-0.15891-0.02245-1.7451-0.01274-3.5249 0.01728-3.1556 0.0202-3.245 0.11854-3.599 0.1477-0.53177 0.39655-0.96406 0.77361-1.3439 0.38195-0.38473 0.70962-0.5888 1.2378-0.77084 1.3086-0.45105 2.5438-0.1731 3.5008 0.78776 0.55771 0.55998 0.80846 1.1664 0.8616 2.0838 0.09061 1.5642-0.80228 2.8749-2.2632 3.3221-0.90661 0.27752-1.833 0.10434-2.583-0.48288-0.14405-0.11278-0.28447-0.20506-0.31204-0.20506-0.03526 0-0.05014 0.59672-0.05014 2.0109v2.0109h-1.2408zm4.045-4.3625c0.76882-0.36 1.2076-1.2197 1.0788-2.1137-0.0973-0.67539-0.46216-1.199-1.0286-1.4762-0.28941-0.14162-0.33111-0.14906-0.83622-0.14906-0.5005 0-0.54962 0.0085-0.8391 0.14568-0.50684 0.24013-0.84218 0.64651-0.9845 1.1931-0.13412 0.51508-0.06938 1.1483 0.16424 1.6062 0.20113 0.39426 0.72417 0.80603 1.1686 0.91998 0.07926 0.02033 0.33133 0.03199 0.56016 0.02588 0.35312-0.0094 0.46152-0.03235 0.71667-0.15184zm-16.596 1.4308c-0.89368-0.11556-1.7398-0.57045-2.2436-1.2062-0.11568-0.14598-0.29306-0.43185-0.39416-0.63525-0.61378-1.2349-0.30387-2.8435 0.73699-3.8254 0.37263-0.35152 0.68039-0.53619 1.1842-0.71061 0.3331-0.11531 0.4318-0.12802 0.9939-0.12797 0.58519 4e-5 0.6521 0.0096 1.0737 0.15322 1.0809 0.36819 1.8431 1.1786 2.1174 2.2513 0.08828 0.34515 0.12017 0.94399 0.06186 1.1616l-0.02788 0.10401h-2.514c-2.4683 0-2.514 0.0016-2.514 0.09084 0 0.17395 0.14883 0.53458 0.30341 0.73521 0.19645 0.25497 0.43945 0.43432 0.76165 0.56217 0.71798 0.28491 1.3958 0.17411 2.0738-0.33902l0.29588-0.22391 0.56931 0.21965 0.5693 0.21965-0.12404 0.22791c-0.16421 0.3017-0.67224 0.766-1.0626 0.97114-0.53436 0.2808-1.3321 0.4401-1.8612 0.37168zm2.0803-4.1218c0-0.30589-0.43892-0.75061-1.0005-1.0137-0.24138-0.11308-0.32353-0.12686-0.7562-0.12686-0.44821 0-0.50884 0.01113-0.79158 0.14507-0.37518 0.17776-0.65361 0.4229-0.83038 0.73107-0.24474 0.42669-0.3743 0.39513 1.622 0.39513h1.7567zm5.2917 4.1044c-1.2252-0.16031-2.2661-1.0787-2.5913-2.2864-0.1016-0.37728-0.13628-1.184-0.06782-1.5778 0.11239-0.64655 0.453-1.3047 0.90649-1.7515 0.89257-0.87948 2.4425-1.1276 3.6433-0.58313 0.94076 0.42656 1.5576 1.1543 1.7684 2.0864 0.11185 0.49448 0.15458 4.1143 0.04856 4.1143-0.03733 0-0.30794-0.18723-0.60136-0.41606-0.29342-0.22883-0.54847-0.41605-0.56677-0.41605-0.01829 0-0.23226 0.1289-0.47545 0.28643-0.70646 0.45765-1.3753 0.63385-2.064 0.54374zm1.2282-1.3616c0.3182-0.1111 0.66789-0.37487 0.85268-0.64316 0.47006-0.68251 0.47134-1.7741 0.0028-2.4543-0.27796-0.4036-0.64201-0.61784-1.2137-0.71426-0.83027-0.14004-1.6346 0.26235-2.0068 1.0039-0.15389 0.30665-0.15621 0.32032-0.1546 0.91228 0.0015 0.5163 0.0166 0.63864 0.10793 0.86837 0.2085 0.52449 0.78556 0.9969 1.342 1.0986 0.28622 0.05233 0.8165 0.01688 1.0696-0.07148zm-13.171 1.1529c-0.85721-0.2341-1.4858-0.92321-1.6211-1.7771-0.02906-0.18349-0.04773-1.4754-0.04795-3.3182l-3.09e-4 -3.0177 1.2713 0.02572 0.02693 2.9586c0.01934 2.1269 0.04301 3.0197 0.08416 3.1759 0.08648 0.32829 0.33328 0.57616 0.69792 0.70097l0.30048 0.10285v1.1978l-0.23114 0.0096c-0.12713 0.0053-0.34322-0.02106-0.4802-0.05846zm19.711-7.3905c-0.61481-0.1217-1.0516-0.33693-1.4821-0.73039-0.28794-0.26316-0.64491-0.73839-0.6902-0.91886-0.02865-0.11413-0.0096-0.12694 0.49681-0.33427 0.28963-0.11857 0.54254-0.21559 0.56204-0.21559s0.19137 0.14367 0.38194 0.31927c0.19057 0.1756 0.47472 0.38883 0.63145 0.47384 0.27401 0.14863 0.30448 0.15457 0.79346 0.15457 0.47597 0 0.52845-0.0094 0.82012-0.14761 0.5534-0.26215 0.916-0.73778 1.0743-1.4091 0.0791-0.33551 0.09491-1.2194 0.02261-1.2641-0.02622-0.01619-0.17655 0.08984-0.33406 0.23566-0.55382 0.51274-1.2443 0.72517-2.0298 0.62444-1.2915-0.16563-2.1455-0.83684-2.5802-2.0282-0.46568-1.276-0.19853-2.5849 0.71513-3.5039 0.40938-0.41176 0.88677-0.68656 1.4567-0.83853 0.41734-0.11128 1.346-0.10916 1.7567 4e-3 1.0592 0.29187 1.8577 1.0465 2.2081 2.0866l0.12459 0.36982 0.01502 2.117c0.01221 1.7224 0.0021 2.1845-0.05335 2.4795-0.23765 1.26-1.1319 2.2067-2.3374 2.4744-0.48109 0.10684-1.1589 0.12936-1.5519 0.05156zm1.5304-4.6214c0.3507-0.1576 0.71238-0.5154 0.86919-0.85987 0.33599-0.7381 0.21507-1.7587-0.27265-2.3012-0.7866-0.87489-2.3351-0.78322-2.9758 0.17617-0.25401 0.38038-0.34552 0.75709-0.32258 1.328 0.01687 0.41992 0.03381 0.49166 0.19151 0.81074 0.18985 0.38414 0.45227 0.65246 0.8052 0.82331 0.31763 0.15376 0.45674 0.17735 0.9606 0.16291 0.38677-0.01107 0.50837-0.03396 0.74448-0.14007zm-9.2735 1.3853c-1.4702-0.3116-2.43-1.481-2.5256-3.0773-0.05717-0.95443 0.27812-1.7819 1.0209-2.5194 0.36032-0.35779 0.70422-0.56062 1.2273-0.72389 0.48876-0.15255 1.3801-0.1526 1.9158-9.3e-5 1.1157 0.3176 1.8404 1.0117 2.2039 2.1108 0.10376 0.3137 0.10751 0.38234 0.12286 2.2457 0.01283 1.556 0.0042 1.9318-0.04554 1.973-0.04762 0.0395-0.16841-0.04678-0.53889-0.38501-0.51934-0.47412-0.60594-0.50846-0.82316-0.32645-0.71917 0.6026-1.7254 0.87902-2.5576 0.70263zm1.3758-1.3136c0.51033-0.15883 0.86097-0.47749 1.1097-1.0085 0.11816-0.25223 0.12639-0.31045 0.12639-0.89483 0-0.61068-0.0034-0.63201-0.14897-0.92766-0.1908-0.38756-0.46651-0.66341-0.84493-0.84536-0.2859-0.13746-0.32741-0.14441-0.85522-0.14307-0.49828 0.0012-0.58061 0.01354-0.80899 0.12076-0.39462 0.18526-0.66884 0.45803-0.85999 0.85545-0.14505 0.30158-0.16913 0.40185-0.19052 0.79327-0.05055 0.9257 0.28882 1.5913 0.992 1.9455 0.40748 0.20525 1.0182 0.24835 1.4805 0.10447zm17.062 1.3139c-0.46795-0.08295-0.6408-0.14129-1.0641-0.35915-1.2106-0.62302-1.864-2.2521-1.4923-3.7204 0.26005-1.0271 1.0621-1.8658 2.1244-2.2216 0.32406-0.10851 0.44419-0.12401 0.97079-0.12525 0.48781-0.0012 0.66878 0.01811 0.96115 0.10229 0.4979 0.14335 0.94237 0.37744 1.2493 0.65794 0.29393 0.26864 0.61359 0.68131 0.56521 0.72968-0.01769 0.01771-0.27503 0.17208-0.57182 0.34304-0.49334 0.28418-0.54463 0.30403-0.598 0.23144-0.40167-0.54635-1.0344-0.83187-1.741-0.78568-1.0774 0.07042-1.8141 1.0809-1.6496 2.2627 0.11036 0.79311 0.41185 1.215 1.0914 1.5271 0.19852 0.09119 0.30616 0.10617 0.76276 0.10617 0.49412 0 0.55118-0.0096 0.80899-0.13558 0.15792-0.07719 0.39577-0.25373 0.5523-0.40992 0.21217-0.21171 0.29132-0.26438 0.34671-0.2307 0.03947 0.024 0.2852 0.16396 0.54605 0.31103 0.26085 0.14707 0.48443 0.28384 0.49685 0.30393 0.03248 0.05255-0.60137 0.7188-0.8401 0.88305-0.29647 0.20397-0.69439 0.39177-1.0094 0.47636-0.38934 0.10456-1.0827 0.12911-1.5096 0.05344zm-5.1704-3.1932v-3.2128h1.1557v6.4257h-1.1557zm-26.883 3.0603c-0.01469-0.0585-0.02027-1.0206-0.01243-2.138l0.01425-2.0317 0.14146-0.39498c0.2646-0.73884 0.70156-1.2376 1.3753-1.5697 0.20823-0.10266 0.53462-0.21952 0.7253-0.2597 0.45637-0.09617 1.077-0.06342 1.4562 0.07685 0.31684 0.11721 0.8141 0.43175 1.0141 0.64147 0.16562 0.17366 0.25331 0.17864 0.39934 0.02267 0.20723-0.22132 0.76115-0.5553 1.1083-0.66825 0.43879-0.14277 1.1631-0.15475 1.5925-0.02634 0.77843 0.23273 1.4054 0.74954 1.7242 1.4212 0.10103 0.21287 0.20571 0.48064 0.23261 0.59506 0.04663 0.19831 0.06368 1.2236 0.05708 3.4324l-0.0031 1.0055h-1.2899l-0.01378-2.0456-0.01378-2.0456-0.12111-0.25825c-0.15395-0.32828-0.40186-0.57618-0.73011-0.73009-0.36782-0.17246-0.84927-0.16826-1.196 0.01043-0.3306 0.17037-0.58377 0.40812-0.71218 0.6688-0.1055 0.21419-0.10697 0.24023-0.12983 2.2969l-0.02311 2.0803h-1.3406l-0.0231-2.0571-0.0231-2.0571-0.12898-0.26265c-0.14688-0.29911-0.34594-0.4917-0.69327-0.67073-0.3492-0.18-0.82996-0.18116-1.193-0.0028-0.3317 0.1629-0.57961 0.40523-0.7175 0.70136l-0.10938 0.2349-6.04e-4 2.0687-3.09e-4 2.0687h-0.66942c-0.66003 0-0.6698-0.0016-0.69612-0.10635zm27.091-7.8398c-0.34641-0.15988-0.48539-0.39449-0.48539-0.81938 0-0.28357 0.06799-0.44572 0.26168-0.62404 0.25156-0.23159 0.60155-0.28434 0.91713-0.13823 0.60054 0.27804 0.72194 1.0008 0.23929 1.4245-0.27968 0.24556-0.6177 0.30251-0.93271 0.15712zm-35.468 7.1507c-1.1796-4.4893-5.1947-7.614-9.7837-7.614s-8.6041 3.1247-9.7824 7.614a15.221 15.221 0 0 0-4.7462 7.7098 33.954 33.954 0 0 1 5.1068-1.3606c1.5191 3.9272 5.2594 6.5117 9.4264 6.5117 4.1663 0 7.9073-2.5845 9.4257-6.5117a33.955 33.955 0 0 1 5.1022 1.3606 15.221 15.221 0 0 0-4.7488-7.7098zm-12.884-0.17965c-0.43922 1.4339-1.7569 2.2938-2.9391 1.92-1.1816-0.37317-1.7873-1.8375-1.3474-3.272 0.43856-1.4346 1.7562-2.2938 2.9385-1.922s1.7807 1.8361 1.348 3.274zm9.143 1.92c-1.1836 0.37384-2.5012-0.48743-2.9391-1.92-0.43724-1.4332 0.1638-2.8988 1.3487-3.272 1.1856-0.37383 2.5012 0.48743 2.9391 1.922 0.43724 1.4339-0.17304 2.8949-1.3566 3.2667z" fill="#fff" stroke-width=".046228"/>
 </g>
</svg>
