<svg width="101.28" height="86.28" xmlns:cc="http://creativecommons.org/ns#" xmlns:dc="http://purl.org/dc/elements/1.1/" xmlns:rdf="http://www.w3.org/1999/02/22-rdf-syntax-ns#" version="1.1" viewBox="0 0 101.28 86.28" xmlns="http://www.w3.org/2000/svg">
 <metadata>
  <rdf:RDF>
   <cc:Work rdf:about="">
    <dc:format>image/svg+xml</dc:format>
    <dc:type rdf:resource="http://purl.org/dc/dcmitype/StillImage"/>
    <dc:title/>
   </cc:Work>
  </rdf:RDF>
 </metadata>
 <script/>
 <circle cx="47.55" cy="43.278" r="40.14" fill="none" stroke="#fff"/>
 <g transform="translate(-2.4986 -1.7222)" fill="#fff">
  <g fill="#fff">
   <g>
    <circle cx="47.679" cy="12.57" r=".45"/>
    <circle cx="52.299" cy="13.17" r=".45"/>
    <circle cx="58.359" cy="21.33" r=".45"/>
    <circle cx="25.119" cy="63.33" r=".45"/>
    <circle cx="26.289" cy="66.93" r=".45"/>
    <circle cx="20.709" cy="63.87" r=".337"/>
    <circle cx="39.009" cy="70.942" r=".338"/>
    <circle cx="67.711" cy="64.98" r=".337"/>
    <circle cx="76.052" cy="55.92" r=".338"/>
    <circle cx="35.169" cy="23.962" r=".337"/>
    <circle cx="44.349" cy="17.22" r=".337"/>
    <circle cx="43.352" cy="16.56" r=".337"/>
    <circle cx="42.452" cy="15.9" r=".337"/>
    <circle cx="36.609" cy="25.703" r=".337"/>
    <circle cx="50.131" cy="8.16" r=".337"/>
    <circle cx="52.352" cy="17.88" r=".337"/>
    <circle cx="48.849" cy="15.982" r=".337"/>
    <circle cx="42.849" cy="18.563" r=".337"/>
    <circle cx="69.309" cy="73.883" r=".337"/>
    <circle cx="24.549" cy="65.61" r=".338"/>
    <circle cx="48.009" cy="69.96" r=".338"/>
    <circle cx="31.531" cy="65.34" r=".338"/>
    <circle cx="34.449" cy="70.103" r=".338"/>
    <circle cx="55.929" cy="67.103" r=".337"/>
    <circle cx="67.771" cy="60.42" r=".337"/>
    <circle cx="76.749" cy="64.522" r=".337"/>
    <circle cx="79.809" cy="66.48" r=".337"/>
    <circle cx="80.312" cy="61.14" r=".337"/>
    <circle cx="35.671" cy="53.58" r=".337"/>
    <circle cx="35.799" cy="61.32" r=".45"/>
    <circle cx="38.499" cy="67.02" r=".45"/>
    <circle cx="70.839" cy="61.08" r=".45"/>
    <circle cx="82.479" cy="60.42" r=".45"/>
    <circle cx="76.719" cy="57.96" r=".45"/>
    <circle cx="70.839" cy="58.2" r=".45"/>
    <path d="m58.71 12.288 1.119-0.107-1.117-0.063c-0.035-0.216-0.208-0.385-0.426-0.413l-0.107-1.114-0.064 1.123c-0.202 0.045-0.357 0.214-0.382 0.424l-1.144 0.104 1.152 0.062c0.042 0.193 0.198 0.344 0.394 0.38l0.104 1.148 0.061-1.146c0.207-0.035 0.371-0.194 0.41-0.398z"/>
    <path d="m39.824 24.746 1.119-0.107-1.117-0.063c-0.034-0.216-0.208-0.385-0.426-0.413l-0.107-1.114-0.063 1.123c-0.203 0.045-0.358 0.214-0.383 0.424l-1.144 0.104 1.152 0.062c0.042 0.193 0.198 0.344 0.394 0.38l0.104 1.148 0.062-1.146c0.207-0.034 0.371-0.194 0.409-0.398z"/>
    <path d="m81.659 57.684 1.119-0.107-1.117-0.063c-0.034-0.216-0.208-0.385-0.426-0.413l-0.107-1.114-0.063 1.123c-0.202 0.045-0.357 0.214-0.382 0.424l-1.144 0.104 1.152 0.062c0.042 0.193 0.198 0.344 0.394 0.38l0.104 1.148 0.062-1.146c0.205-0.034 0.369-0.193 0.408-0.398z"/>
    <path d="m36.044 74.906 1.119-0.107-1.117-0.063c-0.035-0.216-0.208-0.385-0.426-0.413l-0.107-1.113-0.063 1.122c-0.203 0.045-0.358 0.214-0.383 0.424l-1.144 0.104 1.152 0.062c0.042 0.193 0.198 0.345 0.394 0.38l0.104 1.148 0.062-1.146c0.206-0.034 0.371-0.194 0.409-0.398z"/>
    <path d="m78.104 66.506 1.119-0.107-1.117-0.063c-0.034-0.216-0.208-0.385-0.426-0.413l-0.107-1.114-0.063 1.122c-0.202 0.045-0.357 0.214-0.382 0.424l-1.144 0.104 1.152 0.062c0.042 0.193 0.198 0.344 0.394 0.38l0.104 1.148 0.062-1.146c0.205-0.033 0.37-0.193 0.408-0.397z"/>
   </g>
   <path d="m59.568 35.385c-4.667 1.814-9.219 3.433-13.06 4.635-7.805 2.444-29.16 9.06-42.06 17.4l1.08 0.42c7.86-4.44 12.969-5.835 17.88-7.38 5.34-1.68 22.603-5.72 30.42-7.92 2.641-0.743 5.734-1.716 9.01-2.9-0.762-1.063-1.566-2.129-2.412-3.193-0.283-0.359-0.57-0.713-0.858-1.062zm5.702 7.859c-1.13 0.763-2.077 1.372-2.74 1.756-3.84 2.22-22.561 15-26.82 17.94s-16.08 14.1-19.56 17.34l-0.12 1.319c11.22-10.08 14.74-12.566 19.2-15.959 5.52-4.2 16.939-11.97 20.82-14.46 3.71-2.38 7.056-4.569 10.059-6.572-0.049-0.082-0.098-0.164-0.147-0.247-0.226-0.371-0.457-0.743-0.692-1.117zm17.539-18.524c-5.466 3.204-14.081 7.071-22.439 10.352 0.2 0.245 0.399 0.492 0.597 0.741 0.934 1.176 1.815 2.36 2.644 3.545 6.57-2.42 13.779-5.668 19.499-9.599-2.725 2.582-11.734 9.315-17.227 13.068 0.283 0.461 0.557 0.922 0.822 1.381 8.322-5.569 13.922-9.668 17.185-12.409 4.5-3.78 14.76-12.24 18.66-23.58-6.841 8.701-14.929 13.68-19.741 16.501z" fill-opacity=".46281"/>
   <g>
    <path d="m44.884 54.939c-0.885-1.114-2.109-2.606-3.028-3.763-1.229-1.547-2.366-3.11-3.408-4.671-0.34 0.085-0.679 0.17-1.018 0.255 1.258 1.963 2.655 3.923 4.177 5.839 1.112 1.4 2.123 2.527 2.641 3.228 0.105 0.142 0.313 0.456 0.594 0.874 0.324-0.22 0.651-0.442 0.981-0.666-0.319-0.347-0.634-0.712-0.939-1.096zm6.46 5.864c-0.727-0.688-2.49-1.837-4.325-3.561-0.405 0.278-0.814 0.56-1.224 0.844 1.185 1.67 2.799 3.721 4.063 4.319 1.904 0.902 2.417-0.72 1.486-1.602zm9.623-24.99c-10.492-13.206-23.309-20.461-28.835-16.07-4.292 3.41-2.53 13.376 3.386 23.845 0.306-0.105 0.609-0.208 0.909-0.31-5.971-10.2-7.605-19.679-3.557-22.896 5.087-4.042 17.37 3.241 27.558 16.064 2.109 2.654 3.963 5.318 5.533 7.915 6.012 9.95 7.857 18.948 3.703 22.621-1.271 1.124-5.155 1.565-10.243-0.725-0.071 0.089 0.043 0.33 0.132 0.389 4.392 1.766 8.599 2.439 10.723 0.752 5.104-4.056 1.183-18.379-9.309-31.585z"/>
    <path d="m15.969 37.38h6.72l5.64 9.57v-7.47c0-0.84-1.065-1.935-1.44-2.1h4.65c-0.285 0.075-1.2 1.185-1.2 2.1v10.98c0 0.675 0.975 1.605 1.44 1.965h-6.48l-5.73-9.615v7.56c0 0.75 0.735 1.47 1.5 2.085h-4.95c0.705-0.3 1.38-1.245 1.44-1.995s0-10.425 0-10.845c0-0.915-0.885-1.665-1.59-2.235z"/>
    <path d="m77.439 52.425h8.94c-0.495-0.12-1.05-0.705-1.35-1.485s-5.04-13.56-5.04-13.56h-3.399c-0.964 0.694-1.997 1.426-3.1 2.197-3e-3 0.028-6e-3 0.056-0.011 0.083-0.148 0.9-2.808 10.534-2.97 11.01-0.225 0.66-1.38 1.395-1.845 1.785h4.815c-0.48-0.54-0.87-1.065-0.78-1.665s0.36-1.8 0.36-1.8h4.98c0.225 0.6 0.393 1.139 0.48 1.65 0.105 0.615-0.525 1.305-1.08 1.785zm-3.93-5.355 1.68-5.49 2.22 5.49zm-0.757-9.142c0.247-0.182 0.495-0.365 0.742-0.548h-1.305c0.13 0.12 0.345 0.309 0.563 0.548z"/>
    <path d="m38.559 50.79c0.09-0.6 0.36-1.8 0.36-1.8h4.98c0.225 0.6 0.393 1.139 0.48 1.65 0.105 0.615-0.525 1.305-1.08 1.785h7.871c0.164-0.11 0.327-0.22 0.49-0.329-0.305-0.27-0.586-0.675-0.771-1.156-0.3-0.78-5.04-13.56-5.04-13.56h-7.8c0.375 0.345 1.455 1.275 1.29 2.28-0.147 0.9-2.808 10.534-2.97 11.01-0.225 0.66-1.38 1.395-1.845 1.785h4.815c-0.48-0.54-0.87-1.065-0.78-1.665zm2.49-9.21 2.22 5.49h-3.9z"/>
    <path d="m65.748 44.848c-1.468 0.978-3.017 1.999-4.649 3.065 0.732 0.355 1.315 0.801 1.371 1.377 0.104 1.082-2.07 1.605-4.035 1.38-0.393-0.045-0.779-0.148-1.147-0.286-0.408 0.263-0.82 0.528-1.238 0.796-0.425 0.273-0.941 0.609-1.53 0.997v1.553c0.39-0.765 1.243-1.45 1.905-1.485 0.285-0.015 1.275 0.9 5.355 0.675 1.98-0.109 5.805-2.22 5.745-4.65-0.036-1.436-0.786-2.556-1.777-3.422zm-11.229 3.752v1.582c0.361-0.241 0.717-0.478 1.066-0.709-0.549-0.382-0.938-0.739-1.066-0.873zm9.834-4.745c-0.38-0.225-0.765-0.422-1.134-0.596-1.92-0.9-3.93-1.065-4.35-2.28-0.296-0.857 0.54-1.65 2.58-1.62s3.93 1.245 4.44 1.68v-3.87c-0.15 0.15-0.808 0.905-1.41 0.78-1.155-0.24-3.12-0.553-5.37-0.54-2.58 0.015-4.8 2.009-4.875 4.53-0.105 3.525 2.715 4.485 4.305 5.04 0.164 0.057 0.351 0.118 0.554 0.183 1.525-0.992 2.731-1.756 3.437-2.163 0.474-0.273 1.095-0.665 1.823-1.144z"/>
   </g>
  </g>
 </g>
</svg>
