<svg width="4844" height="1612.3" xmlns:cc="http://creativecommons.org/ns#" xmlns:dc="http://purl.org/dc/elements/1.1/" xmlns:rdf="http://www.w3.org/1999/02/22-rdf-syntax-ns#" space="preserve" version="1.1" viewBox="0 0 4844 1612.3" xmlns="http://www.w3.org/2000/svg">
 <metadata>
  <rdf:RDF>
   <cc:Work rdf:about="">
    <dc:format>image/svg+xml</dc:format>
    <dc:type rdf:resource="http://purl.org/dc/dcmitype/StillImage"/>
    <dc:title/>
   </cc:Work>
  </rdf:RDF>
 </metadata>
 <script/>
 <style type="text/css">.st0{fill:#034EA2;}
	.st1{fill:#FFFFFF;}</style>
 <g transform="translate(2.9889 2.985)">
  <g>
   <g>
    <path d="m3549 14.73c-369.34 0.77338-796.5 38.597-1246.8 117.09-571.82 99.553-1086.4 248.16-1479.4 414.87 20.904-4.9361 43.95-7.171 68.235-7.171 69.504 0 165.51 16.689 165.51 123.69v34.457h-122.42v-30.333c0-26.8-16.983-44.569-45.649-44.569-30.727 0-41.429 17.278-44.865 32.887-1.178 5.5956-1.8652 16.1 0.49085 25.917 13.842 57.429 200.27 88.156 220.98 190.94 1.9634 10.504 6.4792 38.285 0.4908 80.694-11.584 81.873-84.721 112.21-173.56 112.21-92.377 0-178.57-33.084-178.57-142.54l0.0978-37.991h131.74v47.514c0 26.898 18.653 44.567 49.478 44.567 32.592 0 43.685-16.688 47.808-32.985 2.2579-9.2279 3.7308-24.542-1.0795-36.42-25.328-63.614-199.68-92.672-221.18-192.9-5.1048-24.64-4.6136-44.274-1.0795-66.362 5.632-34.469 22.121-59.434 46.057-76.687-472.62 209.04-753.03 443.6-718.03 644.5 64.595 370.98 1178.9 486.72 2488.8 258.58 584.38-101.77 1108.9-254.75 1505-425.92-20.414 4.838-42.551 7.0329-65.336 7.0329-87.174 0-164.53-31.905-172.88-121.24-1.3744-16.394-1.5696-23.168-1.7659-32.396l0.098-206.74c0-8.7371 1.0794-24.15 2.0611-32.396 10.897-91.788 85.308-121.34 172.48-121.34 87.076 0 163.36 29.352 172.39 121.34 1.5707 15.609 1.0795 32.396 1.0795 32.396v16.394h-123.79v-27.487c0.098 0.0982-0.1979-11.682-1.5723-18.652-2.0615-10.897-11.484-35.832-48.985-35.832-35.832 0-46.238 23.561-48.889 35.832-1.4725 6.4792-2.0612 15.216-2.0612 23.168v224.61c-0.098 6.1847 0.2934 13.057 1.2751 18.652 1.9633 12.86 14.334 35.341 49.871 35.341s48.004-22.48 50.262-35.537c0.8835-5.5956 1.1796-12.468 1.0814-18.652v-71.272h-50.362v-71.664h174.15v131.84c-0.098 9.2279-0.2953 16.002-1.7679 32.396-3.6388 39.896-21.128 68.33-47.11 87.591 455.45-205.86 723.88-435.08 689.53-631.94-42.326-243.39-536.69-376.95-1241.8-375.47zm-1060.9 527.44c68.915 0 164.14 16.59 164.14 122.42v34.164h-121.53v-30.041c0-26.702-16.591-43.979-45.06-43.979-30.432 0-40.937 16.786-44.472 32.591-1.1781 5.3012-1.8652 15.609 0.4908 25.426 13.744 56.938 198.2 87.37 218.82 189.17 2.1597 10.308 6.3814 37.698 0.393 79.812-11.486 81.088-83.935 111.03-171.8 111.03-91.396 0-176.8-32.69-176.8-141.07l0.1956-37.502h130.37l0.098 47.121c0 26.309 18.553 43.981 48.887 43.981 32.396 0 43.392-16.395 47.416-32.691 2.1598-9.2279 3.7309-24.149-1.0794-35.93-25.034-62.927-197.71-91.788-218.82-191.04-5.1048-24.542-4.7113-43.784-1.1772-65.578 12.762-79.419 83.542-107.89 169.93-107.89zm289.8 12.662h124.09v363.33c0 6.381 0.1955 13.547 1.1772 18.75 2.7487 12.075 13.057 35.734 47.417 35.734 34.065 0 44.667-23.561 47.024-35.636 0.9817-5.3011 1.2754-12.369 1.1772-18.75v-363.42h124.18v352.23c0.2945 9.0316-0.5887 27.586-1.0795 32.2-8.7371 91.69-81.186 121.43-171.4 121.43-90.316 0-162.86-29.745-171.5-121.43-0.3927-4.614-1.2758-23.267-1.0795-32.2zm-1538.7 0.19748h218.43l90.709 491.04h-132.14l-65.38-445.49h-2.7496l-67.246 445.49h-132.63zm417.91 0h200.36l60.57 375.4h2.6518l60.668-375.4h200.27l10.603 491.04h-122.71l-3.2403-441.47h-2.5521l-82.069 441.47h-124.58l-82.167-441.47h-2.6517l-3.0429 441.47h-123zm1602.8 0h182.4l112.89 385.51h2.6497l-6.6743-385.51h121.53v485.94h-174.74l-121.34-398.76h-2.6498l6.7722 398.76h-120.85z" fill="#fff" stroke-width=".98169"/>
   </g>
   <g></g>
  </g>
 </g>
</svg>
