<?xml version="1.0" encoding="UTF-8" standalone="no"?>
<svg xmlns:dc="http://purl.org/dc/elements/1.1/" xmlns:cc="http://creativecommons.org/ns#" xmlns:rdf="http://www.w3.org/1999/02/22-rdf-syntax-ns#" xmlns:svg="http://www.w3.org/2000/svg" xmlns="http://www.w3.org/2000/svg" version="1.1" id="svg74756" viewBox="0 0 500.00001 92.162332" height="92.162331" width="500">
    <defs id="defs74758">
        <clipPath id="clipPath74647" clipPathUnits="userSpaceOnUse">
            <path id="path74649" d="m 28.12,786.474 163.057,0 0,28.712 -163.057,0 0,-28.712 z"/>
        </clipPath>
    </defs>
    <metadata id="metadata74761">
        <rdf:RDF>
            <cc:Work rdf:about="">
                <dc:format>image/svg+xml</dc:format>
                <dc:type rdf:resource="http://purl.org/dc/dcmitype/StillImage"/>
                <dc:title/>
            </cc:Work>
        </rdf:RDF>
    </metadata>
    <g transform="translate(-250.78014,-571.51832)" id="layer1">
        <g clip-path="url(#clipPath74647)" id="g74645" transform="matrix(3.0357669,0,0,-3.0357669,167.91437,3048.733)">
            <g transform="translate(163.062,791.2482)" id="g74651">
                <path id="path74653" style="fill:#ffffff;fill-opacity:1;fill-rule:nonzero;stroke:none" d="m 0,0 0,-3.187 17.485,0 0,3.198 -3.308,0 -0.865,0.049 c -0.35,0.093 -0.594,0.336 -0.683,0.595 l -0.073,0.699 0,5.04 0.132,0.475 c 0.234,0.277 9.278,10.606 9.695,11.058 0.872,1.003 1.346,1.219 2.514,1.219 l 3.217,0 0,3.169 -14.406,0 0,-3.169 2.157,0 c 0.64,0 0.818,-0.649 0.542,-0.995 l -6.122,-7.153 -0.175,0.02 -5.964,7.133 c -0.43,0.53 -0.075,0.995 0.392,0.995 l 2.119,0 0,3.169 -17.58,0 0,-3.169 3.132,0 c 1.36,0 2.243,-0.864 2.761,-1.426 C -4.624,17.278 4.327,7.126 4.538,6.837 4.761,6.558 4.761,6.517 4.761,6.394 l 0,-5.04 L 4.704,0.655 C 4.567,0.396 4.353,0.153 4.013,0.06 L 3.133,0 0,0 Z m -53.8,22.315 0,-3.178 2.785,0 c 2.019,0 2.166,-1.129 2.166,-2.096 l 0,-14.926 C -48.849,1.22 -48.797,0 -50.087,0 l -3.457,0 0,-3.187 14.731,0 0,3.187 -3.59,0 c -1.423,0 -1.506,0.644 -1.53,2.053 l 0,12.773 20.198,-18.013 5.131,0 -0.269,20.347 c 0.036,1.477 0.118,1.986 1.644,1.986 l 3.223,0 0,3.169 -14.994,0 0,-3.169 3.302,0 c 1.5,0 1.769,-0.599 1.777,-1.986 l 0.186,-10.643 -17.53,15.798 -12.535,0 z m -66.213,1.622 c -3.158,0 -6.758,-0.617 -9.782,-1.965 -2.824,-1.264 -5.147,-3.291 -5.147,-6.668 0,-3.025 1.931,-4.804 1.871,-4.746 0.832,-0.76 2.151,-2.052 5.606,-2.795 1.535,-0.342 4.83,-0.846 8.124,-1.215 3.255,-0.337 6.472,-0.664 7.783,-0.988 1.037,-0.274 2.769,-0.633 2.769,-2.581 0,-1.958 -1.835,-2.546 -2.155,-2.669 -0.328,-0.135 -2.522,-1.141 -6.494,-1.141 -2.922,0 -6.437,0.879 -7.721,1.322 -1.465,0.53 -3.012,1.238 -4.46,3.004 -0.365,0.44 -0.907,1.645 -0.907,2.831 l -3.617,0 0,-10.037 3.989,0 0,1.353 c 0,0.138 0.211,0.789 0.86,0.47 0.828,-0.383 3.276,-1.34 5.846,-1.872 2.085,-0.434 3.435,-0.745 6.035,-0.745 4.256,0 6.533,0.686 8.105,1.135 1.511,0.435 3.348,1.204 4.821,2.379 0.81,0.635 2.57,2.293 2.57,5.281 0,2.883 -1.524,4.67 -2.08,5.201 -0.739,0.745 -1.63,1.316 -2.573,1.758 -0.834,0.378 -2.122,0.85 -3.173,1.1 -2.068,0.518 -6.71,1.136 -8.916,1.361 -2.324,0.252 -6.378,0.585 -7.978,1.084 -0.491,0.145 -1.5,0.636 -1.5,1.784 0,0.817 0.474,1.521 1.366,2.097 1.423,0.89 4.335,1.437 7.328,1.437 3.575,0.008 6.585,-0.78 8.499,-1.645 0.656,-0.316 1.409,-0.715 2.028,-1.212 0.682,-0.559 1.636,-1.716 1.983,-3.332 l 3.227,0 0,8.74 -3.588,0 0,-1.012 c 0,-0.334 -0.338,-0.752 -0.994,-0.414 -1.6,0.855 -6.143,2.673 -11.725,2.7 m 43.159,-28.711 c -5.899,0 -11.37,1.776 -15.042,5.068 -2.75,2.478 -4.097,5.85 -4.097,9.306 0,3.419 1.397,6.837 4.097,9.304 3.401,3.089 9.408,5.034 15.042,5.034 6.278,0 11.271,-1.583 15.083,-5.049 2.724,-2.479 4.042,-5.85 4.042,-9.289 0,-3.32 -1.392,-6.867 -4.042,-9.306 -3.545,-3.323 -9.147,-5.068 -15.083,-5.068 l 0,3.783 c 3.158,0 6.056,1.097 8.081,3.106 2.017,2.023 2.957,4.471 2.957,7.485 0,2.913 -1.01,5.59 -2.957,7.507 -1.997,1.966 -4.983,3.094 -8.081,3.094 -3.1,0 -6.07,-1.109 -8.089,-3.094 -1.918,-1.917 -2.938,-4.619 -2.938,-7.507 0,-2.867 1.033,-5.558 2.938,-7.485 2.019,-1.998 4.989,-3.106 8.089,-3.106"/>
            </g>
        </g>
    </g>
</svg>