<svg width="561.44mm" height="152.15mm" version="1.1" viewBox="0 0 1989.4 539.12" xmlns="http://www.w3.org/2000/svg">
 <path d="m59.734 190.21c-27.613 0.2354-48.317 31.357-39.723 57.284 7.179 24.359 34.745 32.632 53.718 45.549 11.818 3.509 16.155 21.68 3.122 26.631-14.243 3.9025-24.104-10.505-25.166-23.036-6.8724-7.6458-19.572-2.6893-28.51-4.2793-7.6152 6.7053-1.3451 21.132-3.3746 30.837 2.4265 8.2916-6.1572 27.579 7.1612 27.05 7.2348-1.5161 23.624 4.3592 24.201-7.4616 22.627 21.012 65.643 9.2992 73.51-21.028 6.8332-21.617-1.1334-47.216-21.271-58.77-14.576-11.49-35.144-15.471-46.564-30.557 1.0624-13.159 23.275-11.39 26.865 0.011 2.113 6.3821 5.2957 13.977 13.599 12.237 8.1096-1.2937 25.073 3.5628 22.055-9.8749-0.76716-13.929 1.5527-28.538-1.1957-42.03-9.007-0.3035-20.459-3.184-28.711 1.734-1.3582 5.4908-2.2978 5.1696-6.5845 1.3513-6.8643-4.2293-15.159-5.7523-23.132-5.6452zm1907.3 0.6977c-1.7602-0.054-3.837 0.274-6.2769 1.0674-23.259 0.7937-47.217-1.588-70.038 1.1957-10.688 26.312-19.666 53.318-31.252 79.208-12.26-26.135-19.964-54.764-32.831-80.215-26.482 0.1101-53.513-1.1392-79.73 0.6079l-0.8604 0.3992c-0.1856 9.8961-3.8546 24.304 2.179 31.923 13.034-1.7135 22.021 0.065 17.737 15.297-0.2625 25.908-0.5274 51.815-0.7908 77.723-10.002-0.098-24.751-0.8811-19.92 13.806-2.2198 11.468 0.5164 22.88 14.738 18.327 18.454-0.774 37.594 1.5621 55.611-1.1957 0.08-9.1944 3.9403-22.87-2.1571-29.877-14.494 2.7845-17.606-4.988-15.247-18.084 0.077-21.23-1.1446-47.262 0.2179-65.788 15.769 37.302 28.258 76.36 44.555 113.15 8.4465 1.3171 24 6.3503 24.727-7.284 13.461-35.365 26.522-70.931 40.798-105.89 0.984 27.61 0.4507 55.244 0.5915 82.864-11.258-1.1641-22.567 1.7167-17.992 15.681-3.62 13.009 3.7589 19.983 16.631 16.424 22.234-0.81 45.18 1.6111 66.974-1.1957 0.08-9.195 3.9426-22.879-2.157-29.883-12.924 1.3637-20.79-1.8426-17.12-16.205-0.2597-25.908-0.5257-51.815-0.7908-77.723 10.099 0.5686 25.788 2.5461 20.865-12.845 1.3393-9.7425 1.0438-21.196-8.4615-21.487zm-898.42 1.247c-1.7605-0.053-4.3712 0.1-7.5238-0.174-22.545 0.8416-45.815-1.5916-67.919 1.2451-10.709 25.685-19.862 56.616-31.263 79.398-11.35-26.065-20.038-54.08-31.998-79.805-25.784-1.9816-52.801-0.2731-79.054-0.8478l-1.7194 0.7965-0.85877 0.3992c-0.18547 9.8961-3.8545 24.304 2.179 31.923 13.034-1.7135 22.019 0.065 17.736 15.297-0.26253 25.908-0.52568 51.815-0.78918 77.723-10.002-0.098-24.753-0.8811-19.922 13.806-2.2196 11.468 0.51666 22.88 14.738 18.327 18.454-0.774 37.594 1.5621 55.611-1.1957 0.08-9.1944 3.9404-22.87-2.157-29.877-14.494 2.7845-17.606-4.988-15.247-18.084-0.15794-22.869-0.73214-45.746-0.0548-68.611 15.856 37.967 28.664 77.35 44.756 115.09 6.4342 4.3672 17.068 2.8564 23.047-0.4505 14.451-37.878 28.239-75.974 43.429-113.56 0.7074 28.188-0.1051 56.386-0.2546 84.576-11.262-1.156-22.61 1.7011-18.027 15.687-3.6199 13.009 3.7591 19.983 16.631 16.424 21.61-0.78 43.909 1.5699 65.081-1.1957 0.08-9.1944 3.9404-22.87-2.157-29.877-14.494 2.7845-17.605-4.988-15.245-18.084-0.2535-25.284-0.5122-50.566-0.7709-75.85 9.9323 1.0454 20.627 2.7862 18.97-12.845 1.3412-9.7444 2.2886-19.952-7.218-20.237zm-781.73-1.237c-1.8179 0.033-3.8618 0.3708-6.1377 1.0583-16.561 0.7688-33.806-1.5549-49.931 1.1957 8e-3 9.2959-3.9833 22.46 3.4222 30.159 3.6888 2.86 10.742-0.1039 8.6865 7.1887-5e-3 27.606 1.863 55.774-1.864 83.058-7.4707 10.698-30.993 9.0782-29.921-6.7621-1.8628-26.776-1.1613-54.464-1.7926-81.579 15.53 4.9178 15.582-9.2303 14.163-20.418 4.9646-16.306-12.01-13.016-22.313-12.843-18.419 0.7748-37.645-1.5627-55.611 1.1957-0.18552 9.8961-3.8546 24.304 2.179 31.923 14.661-3.3693 18.84 3.2228 15.965 17.192 1.1658 25.972-2.3982 52.49 2.298 78.155 7.1379 24.788 35.166 34.986 58.782 32.675 21.777 0.1397 47.693-10.543 51.356-34.532 2.7535-31.01 1.6185-62.245 2.6642-93.344 11.324 1.8976 23.24-0.256 18.549-14.738 2.5389-11.01-0.67727-19.762-10.494-19.585zm1349.4 0.1648c-2.1482 0-4.4887 0.2954-6.9561 0.8935-19.684 0.7774-40.168-1.566-59.399 1.1957-0.1855 9.8961-3.8546 24.304 2.179 31.923 14.599-3.3976 18.682 3.3253 16.022 17.192 1.42 27.241-1.7083 55.052 3.329 81.947 10.017 25.285 41.47 31.622 65.766 28.412 22.366-0.5948 45.135-19.08 43.383-42.847 1.4353-28.164 1.757-56.374 2.6621-84.558 12.922 3.4798 20.245-3.5577 16.556-16.633 4.211-14.52-5.3652-19.822-18.525-16.632-15.93 0.7667-32.542-1.552-48.036 1.1957-0.15 9.312-3.8016 22.743 2.0455 30.09 16-2.4189 12.535 11.543 12.248 22.833-1.3609 22.792 1.5283 46.362-2.7775 68.723-8.6929 10.01-31.136 6.922-29.194-9.3219-2.3742-26.391-2.002-53.583-3.1147-80.255 12.775 3.6443 18.625-4.4515 15.381-16.633 3.4214-11.797-2.2594-17.509-11.569-17.525zm-97.919 0.2307c-1.0868 0.048-2.3262 0.2602-3.7391 0.6628-27.267 0.7857-55.31-1.5776-82.128 1.1957-0.095 9.2341-3.9116 22.816 2.1388 29.941 8.3793 2.3462 24.477-2.1933 19.73 11.733-0.2867 27.751-0.5686 55.502-0.8496 83.253-7.9035 1.6721-24.959-3.457-21.813 10.021 0.5669 8.9755-4.1955 26.423 10.95 22.126 27.291-0.786 55.276 1.5781 82.128-1.1957 0.079-9.1941 3.9429-22.895-2.1624-29.886-9.7631-0.9691-23.869 2.4927-18.973-12.429-0.2738-27.163-0.552-54.325-0.8312-81.487 7.9694-2.5124 25.869 2.3377 22.762-11.332-0.4753-8.1141 3.2948-23.066-7.2107-22.603zm-918.48 0.024c-1.1166 0.031-2.396 0.2341-3.8617 0.639-42.813 0.5375-86.098-1.0671-128.62 0.7965l-0.8606 0.3992c-0.10283 9.2649-3.9009 22.836 2.1313 30.015 12.83-0.8075 19.487 3.7995 16.014 17.276-1.1361 25.756 2.2781 52.086-1.8805 77.527-5.6399 3.0283-19.217-3.2252-17.06 8.0493 1.6329 8.3085-5.5076 27.137 9.0546 24.208 43.444-0.5372 87.362 1.0669 130.51-0.7965 3.9344-12.371 0.50158-27.87 1.6553-41.406 4.583-15.28-11.73-11.944-21.271-11.896-13.746-4.4355-15.495 7.3339-14.46 17.873-2.5105 9.1792-20.943 1.96-29.747 4.6582-16.484 5.4156-8.4826-14.223-10.283-23.833-4.1585-15.503 15.936-6.7535 25.036-8.9978 16.306 4.9646 13.018-12.01 12.845-22.313 4.192-16.205-14.913-9.8156-24.208-10.95-16.112 5.103-14.44-7.5792-13.672-19.356-3.5537-14.878 17.321-5.3281 25.984-7.9889 16.608-4.8471 14.884 6.9146 15.416 19.178 8.8918 3.9178 20.937 0.495 30.987 1.6552 7.5918-6.7188 1.3842-21.109 3.3746-30.837-0.75048-8.2354 3.7062-24.195-7.088-23.901zm-285.68 0.4578c-3.6286 0.039-7.185 0.3589-10.552 1.3769-0.10281 9.2649-3.9009 22.836 2.1314 30.015 12.83-0.8075 19.485 3.7995 16.013 17.276-1.1352 25.749 2.2664 52.064-1.853 77.508-5.7749 1.7691-16.136-0.7169-17.8 8.0603-0.51983 7.5569-4.0866 18.849 1.7853 24.066 27.742-0.1941 56.075 1.1224 83.569-0.6463 3.1123-8.4262 2.094-20.63 0.46143-29.778-9.8421-2.1331-24.609 3.547-19.64-12.312-5.2253-15.646 9.9614-11.703 20.213-12.57 20.742-0.2893 45.021-6.4991 53.736-27.588 12.865-24.613 2.9737-59.308-23.901-69.62-27.559-9.1937-57.443-4.1287-85.964-5.6048-5.9034 0.4634-12.151-0.2467-18.199-0.1812zm819.69 0.049c-17.042 0.02-34.042 0.2319-50.934 0.9283l-0.8588 0.3992c-0.1029 9.2649-3.9008 22.836 2.1314 30.015 12.86-0.8 19.52 3.7815 15.892 17.28-0.2672 25.89-0.5306 51.779-0.7928 77.67-11.262-1.156-22.61 1.7011-18.027 15.687-3.6198 13.009 3.7607 19.983 16.633 16.424 41.552-0.5299 83.571 1.0605 124.83-0.7965 3.9344-12.371 0.5015-27.87 1.6553-41.406 4.66-15.755-12.6-11.708-22.218-11.896-13.931-4.3591-16.839 6.5614-15.406 17.873-2.4391 8.9895-20.55 1.4632-29.2 3.9075-16.065 4.9698-8.5189-14.332-10.635-23.705-4.2951-15 16.144-5.9452 24.774-8.3753 15.181 4.8824 13.705-10.287 12.911-20.42 4.9646-16.306-12.011-13.016-22.315-12.843-15.134 4.1246-17.896-4.1217-15.566-17.461-4.9403-16.265 14.722-7.9269 24.089-9.884 14.741-3.5121 19.436 3.0213 16.514 17.172 6.3191 7.6289 20.424 2.0708 29.747 4.4549 13.366 1.2772 4.989-17.973 7.3077-25.948-2.4783-8.7242 5.5604-26.244-5.2716-28.944-28.338 0.3313-56.858-0.1657-85.261-0.1318zm142.35 0.044c-8.8927 0.015-17.759 0.1585-26.58 0.52l-0.8642 0.39c-1.0747 10.155-1.8996 21.684 0.3735 31.646 8.3745 3.5285 26.454-5.4063 21.467 10.265-0.2816 27.797-0.5648 55.593-0.8477 83.39-7.9035 1.6721-24.961-3.457-21.815 10.021 0.6108 9.0058-4.282 26.757 10.986 22.299 34.856-0.578 69.807-0.3567 104.61-1.43 29.812-10.216 55.896-38.734 53.077-71.77 1.3582-18.164-0.8008-37.043-11.979-52.057-10.964-16.38-29.233-28.323-48.157-32.283-26.67 0.084-53.59-1.0356-80.268-0.9905zm-612.59 0.086c-8.6224 0.048-17.218 0.2075-25.768 0.5274l-0.86242 0.3881c-1.0707 10.124-1.9033 21.624 0.37353 31.555 11.244 1.3264 24.742-2.4724 19.534 14.053-0.26893 26.539-0.53756 53.077-0.80749 79.616-10.002-0.098-24.753-0.8811-19.922 13.806-2.2196 11.468 0.51666 22.88 14.738 18.327 23.503-0.7824 47.7 1.5733 70.765-1.1957 0.08-9.1944 3.9385-22.87-2.1588-29.877-14.428 2.7644-17.734-4.9564-15.571-18.082-4.5307-12.479 3.7533-24.179 13.845-12.962 11.29 20.164 20.548 42.233 33.078 61.234 15.971 1.3693 33.43 1.4116 49.493 0.088 3.1174-8.4249 2.0949-20.631 0.46325-29.78-7.4279-2.61-19.999 2.891-22.57-7.9193-6.4996-11.297-13.624-22.41-18.527-34.504 13.747-8.2998 25.317-22.697 23.247-39.672 1.3755-22.68-17.735-46.327-41.525-44.295-25.85-0.5822-51.958-1.4497-77.825-1.3074zm-291.65 32.607c1.0891-0.063 2.4507 0.1385 4.1437 0.6592 9.5328-1.0353 22.049 1.7753 22.668 13.416 2.5526 11.84-6.3504 25.172-19.391 23.258-12.785 3.7537-12.097-6.6466-11.113-16.906 1.7571-6.6505-3.9322-19.988 3.6914-20.427zm345.57 0.4852c8.5466 0.014 19.216 3.1588 17.102 13.601 1.6698 14.396-16.152 14.143-25.937 13.918-10.878 0.037-2.5293-19.153-5.1782-27.345h10.525c1.0909-0.1137 2.2672-0.1759 3.4882-0.174zm611.17 0.04c15.659-0.2192 32.992 7.104 36.83 23.657 5.2375 20.596 7.5657 47.341-11.312 61.862-10.962 6.4515-24.029 7.3136-36.129 7.4944-1.4725-30.934-0.7069-61.919-0.91-92.876 2.8052 0 5.6121 0.01 8.4173 0.01 1.0246-0.081 2.0597-0.13 3.1037-0.1446zm-119.9-213.14c-32.869 0-224.94 0.1281-246.21 0.1281-21.272 0-26.948 1.9546-40.692 14.9-13.745 12.945-76.345 75.876-92.885 92.481-16.54 16.604-19.845 18.653-20.514 41.175-0.11725 3.9542-0.32416 12.759-0.5603 23.186 2.7598-4.9991 7.1254-8.9557 13.177-10.635 30.75-5.2926 62.345-0.7238 93.392-1.5381 13.797 9.2353 17.909 26.889 24.404 41.351 7.7794-12.776 11.014-35.584 28.495-41.448 31.173-1.0584 62.735-1.5809 93.77 1.886 3.8432 1.5634 6.4408 3.7844 10.065 0.4816 29.262-2.8626 58.716-3.4889 88.162-3.2245 13.45-15.952 57.297-73.207 76.746-96.479 19.536-23.379 5.5133-62.257-27.349-62.26zm-401.86 219.11c-0.50025 23.985-0.97005 47.283-1.3861 69.099 5.8716 4.2272 12.368 0.8826 18.095-2.1075-0.10846-15.599 0.23524-31.207-0.2417-46.8 1.9055-6.1748-4.4562-6.0935-7.4872-9.1481-4.5604-2.8584-7.3215-6.6948-8.9796-11.043zm260.33 11.423c-4.0915 0.4007-7.6454 3.1004-11.459 4.4331 0.023 16.38 0.048 32.758 0.071 49.137 3.1734 7.1738 13.687 7.8792 19.693 2.0985v-40.478c1.506-7.5199-0.2502-13.984-8.3057-15.19zm-254.86 125.47c-2.2737 0.062-4.5512 1.4533-6.8611 3.219-2.9442 0.6364-5.9141 1.1125-8.899 1.4851-0.88905 1.0961-1.8104 2.2264-2.7924 3.4845-6.2224 7.972-50.491 56.653-75.184 85.936-24.693 29.282-3.9548 67.755 24.965 67.755 28.919 0 255.29-1.0126 273.21-1.0126 17.92 0 25.204-6.2918 38.897-18.653 13.694-12.361 61.356-59.732 77.98-78.255 9.5138-10.6 11.79-15.049 11.79-34.972 0-3.2779 0.04-13.991 0.069-22.753-20.169 0.1775-40.342 0.068-60.486-0.1263-8.625 1.9518-15.867-7.9142-23.941-2.8675-29.345 3.9981-59.323 2.1707-88.875 1.5417-7.1897 1.5101-12.436-8.4114-18.948-2.4994-13.888 2.7226-30.169 4.7994-43.112-1.9941-6.6451 2.0655-13.753 5.5559-21.299 4.8359-23.638-0.4859-47.999 2.6749-71.201-2.406-1.7792-2.0108-3.5454-2.7671-5.3138-2.7192z" fill="#fff"/>
</svg>
