<svg width="193" height="34" xmlns:cc="http://creativecommons.org/ns#" xmlns:dc="http://purl.org/dc/elements/1.1/" xmlns:rdf="http://www.w3.org/1999/02/22-rdf-syntax-ns#" version="1.1" viewBox="-1 -1 191 33" xmlns="http://www.w3.org/2000/svg">
 <metadata>
  <rdf:RDF>
   <cc:Work rdf:about="">
    <dc:format>image/svg+xml</dc:format>
    <dc:type rdf:resource="http://purl.org/dc/dcmitype/StillImage"/>
    <dc:title/>
   </cc:Work>
  </rdf:RDF>
 </metadata>
 <script/>
 <g fill="#fff">
  <path d="m22.477 29.654c-2.515-1.575-4.367-7.011-4.367-13.469 0-0.237 1e-3 -0.471 7e-3 -0.704l3e-3 3e-3c-6.994-1.099-12.048-4.111-12.177-7.672l-0.021 0.041c-1.712 2.127-2.689 4.586-2.689 7.206 0 7.71 8.463 14.027 19.198 14.586l0.046 9e-3zm-22.477-14.032c0-8.627 10.736-15.622 23.98-15.622s23.98 6.995 23.98 15.622-10.736 15.622-23.98 15.622-23.98-6.995-23.98-15.622zm23.98-13.368c2.557 0 4.731 3.878 5.537 9.29l3e-3 -8e-3c4.974-0.774 8.457-2.561 8.457-4.639 0-2.79-6.267-5.048-13.997-5.048s-13.997 2.259-13.997 5.048c0 2.078 3.482 3.864 8.457 4.639l3e-3 8e-3c0.806-5.411 2.981-9.29 5.537-9.29zm1.548 27.391c10.735-0.559 19.199-6.876 19.199-14.586 0-2.62-0.978-5.079-2.689-7.206l-0.021-0.041c-0.129 3.561-5.182 6.573-12.177 7.672l3e-3 -3e-3c5e-3 0.233 7e-3 0.467 7e-3 0.704 0 6.458-1.854 11.894-4.367 13.469l0.045-9e-3zm-1.548-17.699c1.146 0 2.259-0.049 3.324-0.143l-1e-3 1e-3c-0.53-3.469-1.818-5.917-3.323-5.917s-2.792 2.448-3.323 5.917l-1e-3 -1e-3c1.065 0.094 2.178 0.143 3.324 0.143zm0 12.846c1.925 0 3.495-4.006 3.579-9.03l0.01 3e-3c-1.16 0.107-2.36 0.164-3.589 0.164s-2.429-0.056-3.589-0.164l0.011-3e-3c0.083 5.025 1.653 9.03 3.578 9.03z"/>
  <path d="m122.36 15.622c0-6.594 5.346-11.939 11.939-11.939 6.596 0 11.941 5.346 11.941 11.939 0 6.595-5.346 11.939-11.941 11.939-6.593 0-11.939-5.345-11.939-11.939zm11.939 7.561c3.683 0 6.668-3.386 6.668-7.562 0-4.175-2.985-7.562-6.668-7.562-3.681 0-6.665 3.386-6.665 7.562s2.985 7.562 6.665 7.562z"/>
  <path d="m159.79 8.657v18.362h-5.03v-18.362h0.017-7.035v-4.152h19.066v4.151h-7.018z"/>
  <path d="m172.89 21.954-5e-3 5e-3 -1.93 5.061h-5.875l9.288-22.514h6.261l9.289 22.514h-5.876l-1.93-5.061-5e-3 -5e-3h-9.217zm4.61-3.8h3.165l-2e-3 1e-3 -3.142-8.24h-0.044l-3.144 8.24-1e-3 -1e-3h3.168z"/>
  <path d="m67.057 8.657v18.362h-5.031v-18.362h0.017-7.036v-4.152h19.067v4.151h-7.017z"/>
  <path d="m75.362 15.622c0-6.594 5.346-11.939 11.941-11.939 6.594 0 11.94 5.346 11.94 11.939 0 6.595-5.346 11.939-11.94 11.939-6.595 0-11.941-5.345-11.941-11.939zm11.941 7.561c3.681 0 6.667-3.386 6.667-7.562 0-4.175-2.985-7.562-6.667-7.562s-6.667 3.386-6.667 7.562 2.985 7.562 6.667 7.562z"/>
  <path d="m110.8 27.019h2.551v-8.549l8.776-13.965h-5.874l-5.453 9.463-5.452-9.463h-5.876l8.777 13.965v8.548h2.551z"/>
 </g>
</svg>
