<svg xmlns="http://www.w3.org/2000/svg" viewBox="0 0 395.05 67.77"><defs><style>.a{fill:#fff;}</style></defs><title>aframe-name-white</title><path class="a" d="M1117.68,1295.13h-30.5l-6.56,19.58h-3.48l23.25-67.77h4.27l23.25,67.77h-3.68Zm-1.09-3.18-14.11-42.23L1088.27,1292h28.32Z" transform="translate(-1077.14 -1246.94)"/><path class="a" d="M1138.64,1282h24.94v3.18h-24.94V1282Z" transform="translate(-1077.14 -1246.94)"/><path class="a" d="M1216.54,1250.12h-28.32v28.82h24.44V1282h-24.44v32.69h-3.48v-67.77H1217Z" transform="translate(-1077.14 -1246.94)"/><path class="a" d="M1255.89,1283.11h-15.7v31.6h-3.48v-67.77h15.4c15.9,0,23,6.36,23,17.89,0,10.43-6.06,15.5-15.4,17.69l18.88,32.19h-4.37Zm-3.08-3.18c11.73,0,18.58-4.67,18.58-15.1,0-9.54-5.27-14.81-19.57-14.81h-11.63v29.91h12.62Z" transform="translate(-1077.14 -1246.94)"/><path class="a" d="M1330.3,1295.13h-30.5l-6.56,19.58h-3.48l23.25-67.77h4.27l23.25,67.77h-3.68Zm-1.09-3.18-14.11-42.23L1300.89,1292h28.32Z" transform="translate(-1077.14 -1246.94)"/><path class="a" d="M1416.55,1314.71h-3.38l-3.68-33.78c-1.19-11.13-2.58-24.34-3.08-30.9l-18.88,56.44h-3.28L1365,1250c-0.4,5.86-1.89,19.38-3,30.11l-3.38,34.58h-3.38l7-67.77h5.17l18.58,55.35,18.18-55.35h5.27Z" transform="translate(-1077.14 -1246.94)"/><path class="a" d="M1471.09,1250.12h-28.82v27.42h24.94v3.08h-24.94v30.9h29.91v3.18H1438.8v-67.77h32.79Z" transform="translate(-1077.14 -1246.94)"/></svg>