<svg xmlns="http://www.w3.org/2000/svg" viewBox="0 0 365.25 160.7"><defs><style>.a,.b{fill:#fff;}.b{opacity:0.25;}</style></defs><title>mozilla-stereo</title><path class="a" d="M114.05,105.61h-6.3l1.44-24.15c0.46-8.2,1-16.55,1.52-21.41L93.63,99.62h-6.3L80.72,60.13C80,65.75,78.21,74.56,76.54,82.3l-5.09,23.31H65.22L77,53.37h8.35l6.23,38.5,16.1-38.5h9.26Z"/><path class="a" d="M171.22,73.57c0,13.82-6.45,33-25.67,33-11.31,0-18.6-7.37-18.6-21,0-13.37,6.53-33.11,25.74-33.11C164,52.46,171.22,59.83,171.22,73.57ZM133.79,85.8c0,10.94,4.71,15.26,12,15.26,14.73,0,18.68-17.16,18.68-27.95,0-10.63-4.48-15.19-12-15.19C137.89,57.93,133.79,74.86,133.79,85.8Z"/><path class="a" d="M173.8,100.3l32-41.38H182.38l0.84-5.54h30.6l-0.68,5.32L181.39,100h25.74l-1.52,5.62H173Z"/><path class="a" d="M234.24,105.61h-7.06l-9.42-52.24h6.84l7,45.18L251.4,53.37h6.83Z"/><path class="a" d="M284.13,82.15l10.63,23.46h-7.21l-9.8-22.48h-8.81l-3.11,22.48H259.3l7.37-52.24H279.8c11.92,0,17.69,4.25,17.69,12.76C297.49,72.51,294.07,79.49,284.13,82.15ZM269.62,78h8c10.25,0,13-6.53,13-11.92s-3.34-7.59-11-7.59h-7.21Z"/><path class="a" d="M365.25,146.43H14.73V0H365.25V146.43ZM18.81,142.35H361.18V4.08H18.81V142.35Z"/><path class="b" d="M350.52,160.7H0V14.27H350.52V160.7ZM4.08,156.62H346.44V18.34H4.08V156.62Z"/></svg>