<svg xmlns="http://www.w3.org/2000/svg" viewBox="0 0 1027.43 160.7"><defs><style>.a,.b{fill:#fff;}.b{opacity:0.25;}</style></defs><title>mozvr-mozilla</title><path class="a" d="M692,58.63c1.06,1.64,1.53,3.1,2.12,6.17a20.88,20.88,0,0,1,14.83-6.17,16.37,16.37,0,0,1,12.37,5,19.33,19.33,0,0,1,2.41,3c5.57-5.7,10.55-8,17.23-8,4.76,0,9.26,1.42,12,3.79,3.44,3,4.53,6.54,4.53,14.86v43.27H742V80.38c0-7.28-.86-8.69-5-8.69-3,0-7.15,2-10.57,5.11v43.74H711.38V80.95c0-7.59-1.1-9.37-5.53-9.37-2.94,0-7,1.52-10.44,4.63v44.34H679.86V78.1c0-8.79-.6-12.58-2.27-15.57Z"/><path class="a" d="M814.4,67.65c4.86,5.7,7,12.35,7,22.22,0,10.46-2.4,17.6-7.65,23.54-4.61,5.22-10.69,8.45-20.06,8.45-16.55,0-27.34-12.37-27.34-31.49s10.91-31.87,27.34-31.87C802.4,58.49,809.17,61.47,814.4,67.65Zm-28.63,8.79c-1.09,3.22-1.67,7.49-1.67,13.56,0,7,.71,12.25,2,15.33a8.84,8.84,0,0,0,8.08,5c6.9,0,9.85-6.18,9.85-20.56,0-8.21-1.07-13.57-3.2-16.31A8.7,8.7,0,0,0,785.76,76.44Z"/><path class="a" d="M872.65,59.69V70.62l-26.88,38.86H873.7l-3.81,11.06H825.11v-9.86l28.62-39.82H827.49V59.69h45.16Z"/><path class="a" d="M899.59,42.93a9.78,9.78,0,1,1-19.57,0,10,10,0,0,1,10-9.87A9.7,9.7,0,0,1,899.59,42.93Zm-1.87,15.32v62.29H881.79V60.76Z"/><path class="a" d="M926.72,48.41V95.82c0,10.47.12,11.88,1.08,13.54A3.62,3.62,0,0,0,931,111a5.82,5.82,0,0,0,1.78-.22l2.72,9.5A26.57,26.57,0,0,1,926,122c-6.79,0-12.26-3.2-14.15-8.3-1.2-3.09-1.45-5-1.45-13.68V54.57a158.41,158.41,0,0,0-.8-18.31l16.29-3.68C926.47,35.9,926.72,39.83,926.72,48.41Z"/><path class="a" d="M959.75,48.41V95.82c0,10.47.14,11.88,1.11,13.54A3.5,3.5,0,0,0,964,111a5.83,5.83,0,0,0,1.81-.22l2.71,9.5a26.5,26.5,0,0,1-9.51,1.66c-6.78,0-12.25-3.2-14.15-8.3-1.21-3.09-1.41-5-1.41-13.68V54.57a152.85,152.85,0,0,0-.85-18.31l16.26-3.68C959.55,35.9,959.75,39.83,959.75,48.41Z"/><path class="a" d="M984.74,62a40.84,40.84,0,0,1,16.62-3.56c10.24,0,17.24,3.79,19.64,10.58,0.79,2.49,1.15,4.39,1.08,10.94l-0.38,20.43v1.08c0,6.53,1.08,9,5.74,12.48l-8.46,9.76c-3.72-1.56-7-4.3-8.58-7.38a27.38,27.38,0,0,1-3.7,3.2c-3,2.14-7.26,3.34-12.25,3.34-13.55,0-20.92-6.91-20.92-19,0-14.29,9.89-20.95,29.25-20.95a33.06,33.06,0,0,1,3.58.14V80.5c0-6.79-1.32-9-7.18-9-5,0-11,2.48-17.56,6.89l-6.78-11.41A58.65,58.65,0,0,1,984.74,62Zm20.64,32c-11,0-14.87,2-14.87,9.28,0,4.74,3,7.95,7.05,7.95a11.53,11.53,0,0,0,8.31-4.16l0.26-13.08h-0.75Z"/><path class="a" d="M114.05,105.61h-6.3l1.44-24.15c0.46-8.2,1-16.55,1.52-21.41L93.63,99.62h-6.3L80.72,60.13C80,65.75,78.21,74.56,76.54,82.3l-5.09,23.31H65.22L77,53.37h8.35l6.23,38.5,16.1-38.5h9.26Z"/><path class="a" d="M171.22,73.57c0,13.82-6.45,33-25.67,33-11.31,0-18.6-7.37-18.6-21,0-13.37,6.53-33.11,25.74-33.11C164,52.46,171.22,59.83,171.22,73.57ZM133.79,85.8c0,10.94,4.71,15.26,12,15.26,14.73,0,18.68-17.16,18.68-27.95,0-10.63-4.48-15.19-12-15.19C137.89,57.93,133.79,74.86,133.79,85.8Z"/><path class="a" d="M173.8,100.3l32-41.38H182.38l0.84-5.54h30.6l-0.68,5.32L181.39,100h25.74l-1.52,5.62H173Z"/><path class="a" d="M234.24,105.61h-7.06l-9.42-52.24h6.84l7,45.18L251.4,53.37h6.83Z"/><path class="a" d="M284.13,82.15l10.63,23.46h-7.21l-9.8-22.48h-8.81l-3.11,22.48H259.3l7.37-52.24H279.8c11.92,0,17.69,4.25,17.69,12.76C297.49,72.51,294.07,79.49,284.13,82.15ZM269.62,78h8c10.25,0,13-6.53,13-11.92s-3.34-7.59-11-7.59h-7.21Z"/><path class="a" d="M365.25,146.43H14.73V0H365.25V146.43ZM18.81,142.35H361.18V4.08H18.81V142.35Z"/><path class="b" d="M350.52,160.7H0V14.27H350.52V160.7ZM4.08,156.62H346.44V18.34H4.08V156.62Z"/></svg>