<svg xmlns="http://www.w3.org/2000/svg" x="0" y="0" viewBox="0 0 48.5 47.3">
<path fill-rule="evenodd" clip-rule="evenodd" fill="#000" d="M24.2,0C10.9,0,0,10.9,0,24.2c0,10.7,6.9,19.8,16.6,23
	c1.2,0.2,1.7-0.5,1.7-1.2c0-0.6,0-2.1,0-4.1c-6.7,1.5-8.2-3.2-8.2-3.2c-1.1-2.8-2.7-3.5-2.7-3.5c-2.2-1.5,0.2-1.5,0.2-1.5
	c2.4,0.2,3.7,2.5,3.7,2.5c2.2,3.7,5.7,2.6,7.1,2c0.2-1.6,0.8-2.6,1.5-3.2c-5.4-0.6-11-2.7-11-12c0-2.6,0.9-4.8,2.5-6.5
	c-0.2-0.6-1.1-3.1,0.2-6.4c0,0,2-0.7,6.7,2.5c1.9-0.5,4-0.8,6.1-0.8c2.1,0,4.1,0.3,6.1,0.8c4.6-3.1,6.7-2.5,6.7-2.5
	c1.3,3.3,0.5,5.8,0.2,6.4c1.6,1.7,2.5,3.9,2.5,6.5c0,9.3-5.7,11.4-11.1,12c0.9,0.7,1.6,2.2,1.6,4.5c0,3.2,0,5.9,0,6.6
	c0,0.6,0.4,1.4,1.7,1.2c9.6-3.2,16.6-12.3,16.6-23C48.5,10.9,37.6,0,24.2,0z"/>
</svg>
